<svg width="229" height="138" viewBox="0 0 229 138" fill="none" xmlns="http://www.w3.org/2000/svg">
<mask id="path-1-outside-1_249_146" maskUnits="userSpaceOnUse" x="0" y="0" width="229" height="138" fill="black">
<rect fill="white" width="229" height="138"/>
<path d="M175.069 72.7657C174.542 72.7657 174.037 72.5225 173.664 72.0897C173.292 71.657 173.083 71.07 173.083 70.4579C173.083 69.8458 173.292 69.2588 173.664 68.826C174.037 68.3933 174.542 68.1501 175.069 68.1501C175.596 68.1501 176.101 68.3933 176.473 68.826C176.846 69.2588 177.055 69.8458 177.055 70.4579C177.055 70.761 177.004 71.0611 176.904 71.341C176.804 71.621 176.658 71.8754 176.473 72.0897C176.289 72.304 176.07 72.474 175.829 72.59C175.588 72.706 175.33 72.7657 175.069 72.7657ZM175.069 63.9961C173.594 63.9961 172.179 64.6769 171.136 65.8887C170.093 67.1006 169.507 68.7441 169.507 70.4579C169.507 75.3042 175.069 82.4583 175.069 82.4583C175.069 82.4583 180.63 75.3042 180.63 70.4579C180.63 68.7441 180.044 67.1006 179.001 65.8887C177.958 64.6769 176.544 63.9961 175.069 63.9961Z"/>
<path d="M18.2631 66.1347H11.3223C10.4917 64.3032 9.69087 62.4422 8.91966 60.5517C8.20779 58.6612 7.4959 56.8002 6.78402 54.9687C6.07214 53.0782 5.38993 51.1877 4.73737 49.2971C4.14414 47.3475 3.58056 45.3979 3.04665 43.4483C2.51274 41.4987 2.03816 39.5491 1.6229 37.5995C1.20763 35.5908 1 33.5821 1 31.5734V20.053H8.91966V31.5734C8.91966 34.0547 9.1273 36.5065 9.54256 38.9288C9.95782 41.351 10.4324 43.7732 10.9663 46.1955C11.5596 48.5586 12.1528 50.9513 12.746 53.3736C13.3986 55.7367 14.0808 58.0999 14.7927 60.4631L21.6445 38.4857V27.1425H28.6743V38.4857L35.4372 60.4631C36.1491 58.0999 36.8313 55.7367 37.4839 53.3736C38.1364 50.9513 38.7296 48.5586 39.2635 46.1955C39.7975 43.7732 40.272 41.351 40.6873 38.9288C41.1026 36.5065 41.3102 34.0547 41.3102 31.5734V20.053H49.3189V31.5734C49.3189 33.5821 49.1112 35.5908 48.696 37.5995C48.2807 39.5491 47.8061 41.4987 47.2722 43.4483C46.7383 45.3979 46.1451 47.3475 45.4925 49.2971C44.8399 51.1877 44.1577 53.0782 43.4458 54.9687C42.7933 56.8002 42.0814 58.6612 41.3102 60.5517C40.539 62.4422 39.7678 64.3032 38.9966 66.1347H31.9668L25.1149 44.1573L18.2631 66.1347Z"/>
<path d="M60.3523 66.1347V1H68.3609V28.2945C68.7762 27.0539 69.3398 25.8723 70.0517 24.7498C70.8229 23.5682 71.7424 22.5639 72.8102 21.7367C73.878 20.9096 75.0645 20.3188 76.3696 19.9644C77.6747 19.5508 79.0095 19.344 80.3739 19.344C81.7977 19.344 83.1918 19.5804 84.5562 20.053C85.98 20.4665 87.2258 21.146 88.2936 22.0912C89.4207 23.0365 90.3402 24.1295 91.0521 25.3701C91.764 26.6108 92.3276 27.9401 92.7428 29.3579C93.1581 30.7168 93.425 32.1051 93.5437 33.523C93.7217 34.9409 93.8107 36.3588 93.8107 37.7767V66.1347H85.802V37.7767C85.802 36.8905 85.7427 36.0043 85.624 35.1182C85.5647 34.1729 85.3867 33.2867 85.0901 32.4596C84.7935 31.5734 84.4079 30.7463 83.9333 29.9783C83.4587 29.2102 82.8655 28.5604 82.1536 28.0287C81.4417 27.4379 80.6409 27.0243 79.751 26.788C78.8612 26.5517 77.9713 26.4335 77.0815 26.4335C76.1916 26.4335 75.3018 26.5517 74.4119 26.788C73.5221 27.0243 72.7212 27.4379 72.0093 28.0287C71.2974 28.5604 70.7042 29.2102 70.2296 29.9783C69.755 30.7463 69.3694 31.5734 69.0728 32.4596C68.7762 33.2867 68.5686 34.1729 68.4499 35.1182C68.3906 36.0043 68.3609 36.8905 68.3609 37.7767V66.1347H60.3523Z"/>
<path d="M121.574 66.8436C119.972 66.8436 118.371 66.6959 116.769 66.4005C115.167 66.1051 113.654 65.5734 112.231 64.8054C110.866 63.9783 109.62 62.9739 108.493 61.7924C107.425 60.5517 106.536 59.2224 105.824 57.8045C105.171 56.3275 104.726 54.7915 104.489 53.1963C104.252 51.6012 104.133 50.0061 104.133 48.4109V37.7767C104.133 36.1816 104.252 34.5864 104.489 32.9913C104.785 31.3962 105.26 29.8897 105.913 28.4718C106.565 26.9948 107.425 25.6655 108.493 24.4839C109.62 23.2433 110.896 22.2389 112.32 21.4709C113.743 20.6438 115.226 20.0825 116.769 19.7871C118.371 19.4917 120.002 19.344 121.663 19.344C123.087 19.344 124.51 19.4327 125.934 19.6099C127.358 19.7871 128.722 20.1416 130.028 20.6733C131.392 21.146 132.638 21.8254 133.765 22.7116C134.951 23.5387 135.93 24.543 136.701 25.7246C137.532 26.9062 138.125 28.2059 138.481 29.6238C138.837 30.9826 139.015 32.371 139.015 33.7889C139.015 35.2068 138.837 36.6247 138.481 38.0426C138.125 39.4605 137.502 40.7307 136.612 41.8532C135.782 42.9757 134.744 43.9505 133.498 44.7776C132.311 45.5456 131.036 46.1659 129.672 46.6386C128.307 47.0521 126.913 47.3475 125.489 47.5248C124.125 47.702 122.701 47.7906 121.218 47.7906H112.142V48.4109C112.142 49.8288 112.29 51.2172 112.586 52.576C112.883 53.9348 113.447 55.205 114.277 56.3866C115.108 57.5091 116.176 58.3658 117.481 58.9566C118.786 59.4883 120.15 59.7541 121.574 59.7541C122.642 59.7541 123.71 59.6655 124.777 59.4883C125.845 59.252 126.824 58.8679 127.714 58.3362C128.663 57.7454 129.405 56.9774 129.939 56.0321C130.532 55.0869 130.828 54.053 130.828 52.9305H138.837C138.837 54.3484 138.6 55.7367 138.125 57.0956C137.71 58.3953 137.087 59.6064 136.256 60.7289C135.485 61.8514 134.536 62.8262 133.409 63.6533C132.282 64.4805 131.066 65.1303 129.761 65.603C128.455 66.0756 127.091 66.4005 125.667 66.5778C124.303 66.755 122.938 66.8436 121.574 66.8436ZM112.142 40.7011H121.218C121.989 40.7011 122.76 40.6716 123.532 40.6125C124.303 40.5534 125.044 40.4057 125.756 40.1694C126.468 39.9331 127.15 39.6377 127.803 39.2832C128.455 38.9288 129.019 38.4857 129.494 37.9539C130.028 37.3632 130.413 36.7133 130.65 36.0043C130.888 35.2954 131.006 34.5569 131.006 33.7889C131.006 32.6664 130.739 31.603 130.206 30.5986C129.731 29.5352 129.019 28.7081 128.07 28.1173C127.121 27.4674 126.083 27.0243 124.955 26.788C123.888 26.5517 122.79 26.4335 121.663 26.4335C120.239 26.4335 118.845 26.7289 117.481 27.3197C116.176 27.8514 115.108 28.6785 114.277 29.801C113.447 30.9235 112.883 32.1937 112.586 33.6116C112.29 34.9705 112.142 36.3588 112.142 37.7767V40.7011Z"/>
<path d="M155.092 97.2989L154.676 20.053H162.685V29.801C163.041 28.5013 163.516 27.2311 164.109 25.9904C164.702 24.7498 165.444 23.6273 166.333 22.6229C167.283 21.5595 168.38 20.7619 169.626 20.2302C170.931 19.6394 172.295 19.344 173.719 19.344C174.787 19.344 175.855 19.4917 176.923 19.7871C178.05 20.0825 179.029 20.5847 179.859 21.2937C180.749 22.0026 181.461 22.8297 181.995 23.775C182.588 24.7202 183.033 25.7246 183.33 26.788C183.626 27.8514 183.834 28.9444 183.952 30.0669C184.071 31.1303 184.13 32.2233 184.13 33.3458H176.122C176.122 32.5187 176.062 31.7211 175.944 30.9531C175.825 30.126 175.558 29.3579 175.143 28.649C174.787 27.94 174.223 27.4083 173.452 27.0539C172.74 26.6403 171.969 26.4335 171.139 26.4335C170.071 26.4335 169.033 26.6994 168.024 27.2311C167.075 27.7628 166.274 28.4718 165.622 29.3579C164.969 30.1851 164.465 31.1303 164.109 32.1937C163.753 33.1981 163.456 34.232 163.219 35.2954C162.982 36.3588 162.833 37.4222 162.774 38.4857C162.715 39.5491 162.685 40.6125 162.685 41.6759L163.1 97.2989H155.092Z"/>
<path d="M210.559 66.8436C208.957 66.8436 207.355 66.6959 205.754 66.4005C204.152 66.1051 202.639 65.5734 201.216 64.8054C199.851 63.9783 198.605 62.9739 197.478 61.7924C196.41 60.5517 195.52 59.2224 194.809 57.8045C194.156 56.3275 193.711 54.7915 193.474 53.1963C193.237 51.6012 193.118 50.0061 193.118 48.4109V37.7767C193.118 36.1816 193.237 34.5864 193.474 32.9913C193.77 31.3962 194.245 29.8897 194.898 28.4718C195.55 26.9948 196.41 25.6655 197.478 24.4839C198.605 23.2433 199.881 22.2389 201.305 21.4709C202.728 20.6438 204.211 20.0825 205.754 19.7871C207.355 19.4917 208.987 19.344 210.648 19.344C212.072 19.344 213.495 19.4327 214.919 19.6099C216.343 19.7871 217.707 20.1416 219.013 20.6733C220.377 21.146 221.623 21.8254 222.75 22.7116C223.936 23.5387 224.915 24.543 225.686 25.7246C226.517 26.9062 227.11 28.2059 227.466 29.6238C227.822 30.9826 228 32.371 228 33.7889C228 35.2068 227.822 36.6247 227.466 38.0426C227.11 39.4605 226.487 40.7307 225.597 41.8532C224.767 42.9757 223.729 43.9505 222.483 44.7776C221.296 45.5456 220.021 46.1659 218.657 46.6386C217.292 47.0521 215.898 47.3475 214.474 47.5248C213.11 47.702 211.686 47.7906 210.203 47.7906H201.127V48.4109C201.127 49.8288 201.275 51.2172 201.571 52.576C201.868 53.9348 202.432 55.205 203.262 56.3866C204.093 57.5091 205.161 58.3658 206.466 58.9566C207.771 59.4883 209.135 59.7541 210.559 59.7541C211.627 59.7541 212.695 59.6655 213.762 59.4883C214.83 59.252 215.809 58.8679 216.699 58.3362C217.648 57.7454 218.39 56.9774 218.924 56.0321C219.517 55.0869 219.813 54.053 219.813 52.9305H227.822C227.822 54.3484 227.585 55.7367 227.11 57.0956C226.695 58.3953 226.072 59.6064 225.241 60.7289C224.47 61.8514 223.521 62.8262 222.394 63.6533C221.267 64.4805 220.051 65.1303 218.746 65.603C217.44 66.0756 216.076 66.4005 214.652 66.5778C213.288 66.755 211.923 66.8436 210.559 66.8436ZM201.127 40.7011H210.203C210.974 40.7011 211.745 40.6716 212.517 40.6125C213.288 40.5534 214.029 40.4057 214.741 40.1694C215.453 39.9331 216.135 39.6377 216.788 39.2832C217.44 38.9288 218.004 38.4857 218.479 37.9539C219.013 37.3632 219.398 36.7133 219.635 36.0043C219.873 35.2954 219.991 34.5569 219.991 33.7889C219.991 32.6664 219.724 31.603 219.19 30.5986C218.716 29.5352 218.004 28.7081 217.055 28.1173C216.106 27.4674 215.068 27.0243 213.94 26.788C212.873 26.5517 211.775 26.4335 210.648 26.4335C209.224 26.4335 207.83 26.7289 206.466 27.3197C205.161 27.8514 204.093 28.6785 203.262 29.801C202.432 30.9235 201.868 32.1937 201.571 33.6116C201.275 34.9705 201.127 36.3588 201.127 37.7767V40.7011Z"/>
<path d="M122.079 136.291H115.138C114.308 134.46 113.507 132.599 112.735 130.708C112.024 128.818 111.312 126.957 110.6 125.125C109.888 123.235 109.206 121.344 108.553 119.454C107.96 117.504 107.396 115.554 106.862 113.605C106.329 111.655 105.854 109.705 105.439 107.756C105.023 105.747 104.816 103.738 104.816 101.73V90.2094H112.735V101.73C112.735 104.211 112.943 106.663 113.358 109.085C113.774 111.507 114.248 113.93 114.782 116.352C115.375 118.715 115.969 121.108 116.562 123.53C117.214 125.893 117.897 128.256 118.608 130.619L125.46 108.642V97.2989H132.49V108.642L139.253 130.619C139.965 128.256 140.647 125.893 141.3 123.53C141.952 121.108 142.545 118.715 143.079 116.352C143.613 113.93 144.088 111.507 144.503 109.085C144.918 106.663 145.126 104.211 145.126 101.73V90.2094H155.054L163.1 97.2989H154.225C154.225 99.3076 152.927 105.747 152.512 107.756C152.097 109.705 151.622 111.655 151.088 113.605C150.554 115.554 149.961 117.504 149.308 119.454C148.656 121.344 147.974 123.235 147.262 125.125C146.609 126.957 145.897 128.818 145.126 130.708C144.355 132.599 143.584 134.46 142.812 136.291H135.783L128.931 114.314L122.079 136.291Z"/>
<path d="M185.702 136.291H181.965C180.838 136.291 179.711 136.202 178.584 136.025C177.516 135.848 176.478 135.523 175.469 135.05C174.461 134.519 173.541 133.869 172.711 133.101C171.939 132.274 171.287 131.358 170.753 130.354C170.278 129.349 169.952 128.286 169.774 127.163C169.596 126.041 169.507 124.948 169.507 123.884V97.2989H163.1L155.054 90.2094H177.516V123.884C177.516 124.534 177.575 125.184 177.694 125.834C177.812 126.484 178.079 127.075 178.495 127.606C178.91 128.138 179.414 128.552 180.007 128.847C180.66 129.083 181.313 129.202 181.965 129.202H185.702V136.291Z"/>
<path d="M193.801 136.291V90.2094H201.809V98.4509C202.225 97.2102 202.788 96.0287 203.5 94.9062C204.271 93.7246 205.191 92.7202 206.259 91.8931C207.327 91.066 208.513 90.4752 209.818 90.1208C211.123 89.7072 212.458 89.5004 213.822 89.5004C215.246 89.5004 216.64 89.7367 218.005 90.2094C219.428 90.6229 220.674 91.3023 221.742 92.2476C222.869 93.1929 223.789 94.2858 224.501 95.5265C225.213 96.7672 225.776 98.0964 226.191 99.5143C226.607 100.873 226.874 102.261 226.992 103.679C227.17 105.097 227.259 106.515 227.259 107.933V136.291H219.251V107.933C219.251 107.047 219.191 106.161 219.073 105.275C219.013 104.329 218.835 103.443 218.539 102.616C218.242 101.73 217.856 100.903 217.382 100.135C216.907 99.3666 216.314 98.7168 215.602 98.185C214.89 97.5943 214.089 97.1807 213.2 96.9444C212.31 96.7081 211.42 96.5899 210.53 96.5899C209.64 96.5899 208.75 96.7081 207.86 96.9444C206.971 97.1807 206.17 97.5943 205.458 98.185C204.746 98.7168 204.153 99.3666 203.678 100.135C203.204 100.903 202.818 101.73 202.521 102.616C202.225 103.443 202.017 104.329 201.898 105.275C201.839 106.161 201.809 107.047 201.809 107.933V136.291H193.801Z"/>
<path d="M28.5557 136.291V78.2459H15.2969V71.1564H60.3233V78.2459H36.5643V136.291H28.5557Z"/>
<path d="M77.0525 137C75.5101 137 73.938 136.823 72.3363 136.468C70.7939 136.173 69.3405 135.641 67.976 134.873C66.6709 134.105 65.4845 133.13 64.4166 131.949C63.4081 130.708 62.5776 129.379 61.9251 127.961C61.3318 126.543 60.9166 125.066 60.6793 123.53C60.442 121.994 60.3233 120.458 60.3233 118.922V71.1564H68.332V118.922C68.332 119.808 68.3616 120.694 68.421 121.58C68.5396 122.407 68.7472 123.264 69.0439 124.15C69.3405 124.977 69.7261 125.775 70.2007 126.543C70.7346 127.252 71.3575 127.872 72.0693 128.404C72.7812 128.936 73.5524 129.32 74.383 129.556C75.2728 129.792 76.1627 129.911 77.0525 129.911C77.9424 129.911 78.8025 129.792 79.6331 129.556C80.5229 129.32 81.3238 128.936 82.0357 128.404C82.7475 127.872 83.3408 127.252 83.8154 126.543C84.3493 125.775 84.7645 124.977 85.0612 124.15C85.3578 123.264 85.5357 122.407 85.5951 121.58C85.7137 120.694 85.773 119.808 85.773 118.922V71.1564H93.7817V95.0391V118.922C93.7817 120.458 93.663 121.994 93.4257 123.53C93.1885 125.066 92.7435 126.543 92.091 127.961C91.4977 129.379 90.6672 130.708 89.5994 131.949C88.5909 133.13 87.4044 134.105 86.04 134.873C84.7349 135.641 83.2815 136.173 81.6797 136.468C80.1373 136.823 78.5949 137 77.0525 137Z"/>
</mask>
<path d="M175.069 72.7657C174.542 72.7657 174.037 72.5225 173.664 72.0897C173.292 71.657 173.083 71.07 173.083 70.4579C173.083 69.8458 173.292 69.2588 173.664 68.826C174.037 68.3933 174.542 68.1501 175.069 68.1501C175.596 68.1501 176.101 68.3933 176.473 68.826C176.846 69.2588 177.055 69.8458 177.055 70.4579C177.055 70.761 177.004 71.0611 176.904 71.341C176.804 71.621 176.658 71.8754 176.473 72.0897C176.289 72.304 176.07 72.474 175.829 72.59C175.588 72.706 175.33 72.7657 175.069 72.7657ZM175.069 63.9961C173.594 63.9961 172.179 64.6769 171.136 65.8887C170.093 67.1006 169.507 68.7441 169.507 70.4579C169.507 75.3042 175.069 82.4583 175.069 82.4583C175.069 82.4583 180.63 75.3042 180.63 70.4579C180.63 68.7441 180.044 67.1006 179.001 65.8887C177.958 64.6769 176.544 63.9961 175.069 63.9961Z" fill="#6DAC56"/>
<path d="M18.2631 66.1347H11.3223C10.4917 64.3032 9.69087 62.4422 8.91966 60.5517C8.20779 58.6612 7.4959 56.8002 6.78402 54.9687C6.07214 53.0782 5.38993 51.1877 4.73737 49.2971C4.14414 47.3475 3.58056 45.3979 3.04665 43.4483C2.51274 41.4987 2.03816 39.5491 1.6229 37.5995C1.20763 35.5908 1 33.5821 1 31.5734V20.053H8.91966V31.5734C8.91966 34.0547 9.1273 36.5065 9.54256 38.9288C9.95782 41.351 10.4324 43.7732 10.9663 46.1955C11.5596 48.5586 12.1528 50.9513 12.746 53.3736C13.3986 55.7367 14.0808 58.0999 14.7927 60.4631L21.6445 38.4857V27.1425H28.6743V38.4857L35.4372 60.4631C36.1491 58.0999 36.8313 55.7367 37.4839 53.3736C38.1364 50.9513 38.7296 48.5586 39.2635 46.1955C39.7975 43.7732 40.272 41.351 40.6873 38.9288C41.1026 36.5065 41.3102 34.0547 41.3102 31.5734V20.053H49.3189V31.5734C49.3189 33.5821 49.1112 35.5908 48.696 37.5995C48.2807 39.5491 47.8061 41.4987 47.2722 43.4483C46.7383 45.3979 46.1451 47.3475 45.4925 49.2971C44.8399 51.1877 44.1577 53.0782 43.4458 54.9687C42.7933 56.8002 42.0814 58.6612 41.3102 60.5517C40.539 62.4422 39.7678 64.3032 38.9966 66.1347H31.9668L25.1149 44.1573L18.2631 66.1347Z" fill="#F35E3E"/>
<path d="M60.3523 66.1347V1H68.3609V28.2945C68.7762 27.0539 69.3398 25.8723 70.0517 24.7498C70.8229 23.5682 71.7424 22.5639 72.8102 21.7367C73.878 20.9096 75.0645 20.3188 76.3696 19.9644C77.6747 19.5508 79.0095 19.344 80.3739 19.344C81.7977 19.344 83.1918 19.5804 84.5562 20.053C85.98 20.4665 87.2258 21.146 88.2936 22.0912C89.4207 23.0365 90.3402 24.1295 91.0521 25.3701C91.764 26.6108 92.3276 27.9401 92.7428 29.3579C93.1581 30.7168 93.425 32.1051 93.5437 33.523C93.7217 34.9409 93.8107 36.3588 93.8107 37.7767V66.1347H85.802V37.7767C85.802 36.8905 85.7427 36.0043 85.624 35.1182C85.5647 34.1729 85.3867 33.2867 85.0901 32.4596C84.7935 31.5734 84.4079 30.7463 83.9333 29.9783C83.4587 29.2102 82.8655 28.5604 82.1536 28.0287C81.4417 27.4379 80.6409 27.0243 79.751 26.788C78.8612 26.5517 77.9713 26.4335 77.0815 26.4335C76.1916 26.4335 75.3018 26.5517 74.4119 26.788C73.5221 27.0243 72.7212 27.4379 72.0093 28.0287C71.2974 28.5604 70.7042 29.2102 70.2296 29.9783C69.755 30.7463 69.3694 31.5734 69.0728 32.4596C68.7762 33.2867 68.5686 34.1729 68.4499 35.1182C68.3906 36.0043 68.3609 36.8905 68.3609 37.7767V66.1347H60.3523Z" fill="#292F36"/>
<path d="M121.574 66.8436C119.972 66.8436 118.371 66.6959 116.769 66.4005C115.167 66.1051 113.654 65.5734 112.231 64.8054C110.866 63.9783 109.62 62.9739 108.493 61.7924C107.425 60.5517 106.536 59.2224 105.824 57.8045C105.171 56.3275 104.726 54.7915 104.489 53.1963C104.252 51.6012 104.133 50.0061 104.133 48.4109V37.7767C104.133 36.1816 104.252 34.5864 104.489 32.9913C104.785 31.3962 105.26 29.8897 105.913 28.4718C106.565 26.9948 107.425 25.6655 108.493 24.4839C109.62 23.2433 110.896 22.2389 112.32 21.4709C113.743 20.6438 115.226 20.0825 116.769 19.7871C118.371 19.4917 120.002 19.344 121.663 19.344C123.087 19.344 124.51 19.4327 125.934 19.6099C127.358 19.7871 128.722 20.1416 130.028 20.6733C131.392 21.146 132.638 21.8254 133.765 22.7116C134.951 23.5387 135.93 24.543 136.701 25.7246C137.532 26.9062 138.125 28.2059 138.481 29.6238C138.837 30.9826 139.015 32.371 139.015 33.7889C139.015 35.2068 138.837 36.6247 138.481 38.0426C138.125 39.4605 137.502 40.7307 136.612 41.8532C135.782 42.9757 134.744 43.9505 133.498 44.7776C132.311 45.5456 131.036 46.1659 129.672 46.6386C128.307 47.0521 126.913 47.3475 125.489 47.5248C124.125 47.702 122.701 47.7906 121.218 47.7906H112.142V48.4109C112.142 49.8288 112.29 51.2172 112.586 52.576C112.883 53.9348 113.447 55.205 114.277 56.3866C115.108 57.5091 116.176 58.3658 117.481 58.9566C118.786 59.4883 120.15 59.7541 121.574 59.7541C122.642 59.7541 123.71 59.6655 124.777 59.4883C125.845 59.252 126.824 58.8679 127.714 58.3362C128.663 57.7454 129.405 56.9774 129.939 56.0321C130.532 55.0869 130.828 54.053 130.828 52.9305H138.837C138.837 54.3484 138.6 55.7367 138.125 57.0956C137.71 58.3953 137.087 59.6064 136.256 60.7289C135.485 61.8514 134.536 62.8262 133.409 63.6533C132.282 64.4805 131.066 65.1303 129.761 65.603C128.455 66.0756 127.091 66.4005 125.667 66.5778C124.303 66.755 122.938 66.8436 121.574 66.8436ZM112.142 40.7011H121.218C121.989 40.7011 122.76 40.6716 123.532 40.6125C124.303 40.5534 125.044 40.4057 125.756 40.1694C126.468 39.9331 127.15 39.6377 127.803 39.2832C128.455 38.9288 129.019 38.4857 129.494 37.9539C130.028 37.3632 130.413 36.7133 130.65 36.0043C130.888 35.2954 131.006 34.5569 131.006 33.7889C131.006 32.6664 130.739 31.603 130.206 30.5986C129.731 29.5352 129.019 28.7081 128.07 28.1173C127.121 27.4674 126.083 27.0243 124.955 26.788C123.888 26.5517 122.79 26.4335 121.663 26.4335C120.239 26.4335 118.845 26.7289 117.481 27.3197C116.176 27.8514 115.108 28.6785 114.277 29.801C113.447 30.9235 112.883 32.1937 112.586 33.6116C112.29 34.9705 112.142 36.3588 112.142 37.7767V40.7011Z" fill="#292F36"/>
<path d="M155.092 97.2989L154.676 20.053H162.685V29.801C163.041 28.5013 163.516 27.2311 164.109 25.9904C164.702 24.7498 165.444 23.6273 166.333 22.6229C167.283 21.5595 168.38 20.7619 169.626 20.2302C170.931 19.6394 172.295 19.344 173.719 19.344C174.787 19.344 175.855 19.4917 176.923 19.7871C178.05 20.0825 179.029 20.5847 179.859 21.2937C180.749 22.0026 181.461 22.8297 181.995 23.775C182.588 24.7202 183.033 25.7246 183.33 26.788C183.626 27.8514 183.834 28.9444 183.952 30.0669C184.071 31.1303 184.13 32.2233 184.13 33.3458H176.122C176.122 32.5187 176.062 31.7211 175.944 30.9531C175.825 30.126 175.558 29.3579 175.143 28.649C174.787 27.94 174.223 27.4083 173.452 27.0539C172.74 26.6403 171.969 26.4335 171.139 26.4335C170.071 26.4335 169.033 26.6994 168.024 27.2311C167.075 27.7628 166.274 28.4718 165.622 29.3579C164.969 30.1851 164.465 31.1303 164.109 32.1937C163.753 33.1981 163.456 34.232 163.219 35.2954C162.982 36.3588 162.833 37.4222 162.774 38.4857C162.715 39.5491 162.685 40.6125 162.685 41.6759L163.1 97.2989H155.092Z" fill="#292F36"/>
<path d="M210.559 66.8436C208.957 66.8436 207.355 66.6959 205.754 66.4005C204.152 66.1051 202.639 65.5734 201.216 64.8054C199.851 63.9783 198.605 62.9739 197.478 61.7924C196.41 60.5517 195.52 59.2224 194.809 57.8045C194.156 56.3275 193.711 54.7915 193.474 53.1963C193.237 51.6012 193.118 50.0061 193.118 48.4109V37.7767C193.118 36.1816 193.237 34.5864 193.474 32.9913C193.77 31.3962 194.245 29.8897 194.898 28.4718C195.55 26.9948 196.41 25.6655 197.478 24.4839C198.605 23.2433 199.881 22.2389 201.305 21.4709C202.728 20.6438 204.211 20.0825 205.754 19.7871C207.355 19.4917 208.987 19.344 210.648 19.344C212.072 19.344 213.495 19.4327 214.919 19.6099C216.343 19.7871 217.707 20.1416 219.013 20.6733C220.377 21.146 221.623 21.8254 222.75 22.7116C223.936 23.5387 224.915 24.543 225.686 25.7246C226.517 26.9062 227.11 28.2059 227.466 29.6238C227.822 30.9826 228 32.371 228 33.7889C228 35.2068 227.822 36.6247 227.466 38.0426C227.11 39.4605 226.487 40.7307 225.597 41.8532C224.767 42.9757 223.729 43.9505 222.483 44.7776C221.296 45.5456 220.021 46.1659 218.657 46.6386C217.292 47.0521 215.898 47.3475 214.474 47.5248C213.11 47.702 211.686 47.7906 210.203 47.7906H201.127V48.4109C201.127 49.8288 201.275 51.2172 201.571 52.576C201.868 53.9348 202.432 55.205 203.262 56.3866C204.093 57.5091 205.161 58.3658 206.466 58.9566C207.771 59.4883 209.135 59.7541 210.559 59.7541C211.627 59.7541 212.695 59.6655 213.762 59.4883C214.83 59.252 215.809 58.8679 216.699 58.3362C217.648 57.7454 218.39 56.9774 218.924 56.0321C219.517 55.0869 219.813 54.053 219.813 52.9305H227.822C227.822 54.3484 227.585 55.7367 227.11 57.0956C226.695 58.3953 226.072 59.6064 225.241 60.7289C224.47 61.8514 223.521 62.8262 222.394 63.6533C221.267 64.4805 220.051 65.1303 218.746 65.603C217.44 66.0756 216.076 66.4005 214.652 66.5778C213.288 66.755 211.923 66.8436 210.559 66.8436ZM201.127 40.7011H210.203C210.974 40.7011 211.745 40.6716 212.517 40.6125C213.288 40.5534 214.029 40.4057 214.741 40.1694C215.453 39.9331 216.135 39.6377 216.788 39.2832C217.44 38.9288 218.004 38.4857 218.479 37.9539C219.013 37.3632 219.398 36.7133 219.635 36.0043C219.873 35.2954 219.991 34.5569 219.991 33.7889C219.991 32.6664 219.724 31.603 219.19 30.5986C218.716 29.5352 218.004 28.7081 217.055 28.1173C216.106 27.4674 215.068 27.0243 213.94 26.788C212.873 26.5517 211.775 26.4335 210.648 26.4335C209.224 26.4335 207.83 26.7289 206.466 27.3197C205.161 27.8514 204.093 28.6785 203.262 29.801C202.432 30.9235 201.868 32.1937 201.571 33.6116C201.275 34.9705 201.127 36.3588 201.127 37.7767V40.7011Z" fill="#292F36"/>
<path d="M122.079 136.291H115.138C114.308 134.46 113.507 132.599 112.735 130.708C112.024 128.818 111.312 126.957 110.6 125.125C109.888 123.235 109.206 121.344 108.553 119.454C107.96 117.504 107.396 115.554 106.862 113.605C106.329 111.655 105.854 109.705 105.439 107.756C105.023 105.747 104.816 103.738 104.816 101.73V90.2094H112.735V101.73C112.735 104.211 112.943 106.663 113.358 109.085C113.774 111.507 114.248 113.93 114.782 116.352C115.375 118.715 115.969 121.108 116.562 123.53C117.214 125.893 117.897 128.256 118.608 130.619L125.46 108.642V97.2989H132.49V108.642L139.253 130.619C139.965 128.256 140.647 125.893 141.3 123.53C141.952 121.108 142.545 118.715 143.079 116.352C143.613 113.93 144.088 111.507 144.503 109.085C144.918 106.663 145.126 104.211 145.126 101.73V90.2094H155.054L163.1 97.2989H154.225C154.225 99.3076 152.927 105.747 152.512 107.756C152.097 109.705 151.622 111.655 151.088 113.605C150.554 115.554 149.961 117.504 149.308 119.454C148.656 121.344 147.974 123.235 147.262 125.125C146.609 126.957 145.897 128.818 145.126 130.708C144.355 132.599 143.584 134.46 142.812 136.291H135.783L128.931 114.314L122.079 136.291Z" fill="#292F36"/>
<path d="M185.702 136.291H181.965C180.838 136.291 179.711 136.202 178.584 136.025C177.516 135.848 176.478 135.523 175.469 135.05C174.461 134.519 173.541 133.869 172.711 133.101C171.939 132.274 171.287 131.358 170.753 130.354C170.278 129.349 169.952 128.286 169.774 127.163C169.596 126.041 169.507 124.948 169.507 123.884V97.2989H163.1L155.054 90.2094H177.516V123.884C177.516 124.534 177.575 125.184 177.694 125.834C177.812 126.484 178.079 127.075 178.495 127.606C178.91 128.138 179.414 128.552 180.007 128.847C180.66 129.083 181.313 129.202 181.965 129.202H185.702V136.291Z" fill="#292F36"/>
<path d="M193.801 136.291V90.2094H201.809V98.4509C202.225 97.2102 202.788 96.0287 203.5 94.9062C204.271 93.7246 205.191 92.7202 206.259 91.8931C207.327 91.066 208.513 90.4752 209.818 90.1208C211.123 89.7072 212.458 89.5004 213.822 89.5004C215.246 89.5004 216.64 89.7367 218.005 90.2094C219.428 90.6229 220.674 91.3023 221.742 92.2476C222.869 93.1929 223.789 94.2858 224.501 95.5265C225.213 96.7672 225.776 98.0964 226.191 99.5143C226.607 100.873 226.874 102.261 226.992 103.679C227.17 105.097 227.259 106.515 227.259 107.933V136.291H219.251V107.933C219.251 107.047 219.191 106.161 219.073 105.275C219.013 104.329 218.835 103.443 218.539 102.616C218.242 101.73 217.856 100.903 217.382 100.135C216.907 99.3666 216.314 98.7168 215.602 98.185C214.89 97.5943 214.089 97.1807 213.2 96.9444C212.31 96.7081 211.42 96.5899 210.53 96.5899C209.64 96.5899 208.75 96.7081 207.86 96.9444C206.971 97.1807 206.17 97.5943 205.458 98.185C204.746 98.7168 204.153 99.3666 203.678 100.135C203.204 100.903 202.818 101.73 202.521 102.616C202.225 103.443 202.017 104.329 201.898 105.275C201.839 106.161 201.809 107.047 201.809 107.933V136.291H193.801Z" fill="#292F36"/>
<path d="M28.5557 136.291V78.2459H15.2969V71.1564H60.3233V78.2459H36.5643V136.291H28.5557Z" fill="#F35E3E"/>
<path d="M77.0525 137C75.5101 137 73.938 136.823 72.3363 136.468C70.7939 136.173 69.3405 135.641 67.976 134.873C66.6709 134.105 65.4845 133.13 64.4166 131.949C63.4081 130.708 62.5776 129.379 61.9251 127.961C61.3318 126.543 60.9166 125.066 60.6793 123.53C60.442 121.994 60.3233 120.458 60.3233 118.922V71.1564H68.332V118.922C68.332 119.808 68.3616 120.694 68.421 121.58C68.5396 122.407 68.7472 123.264 69.0439 124.15C69.3405 124.977 69.7261 125.775 70.2007 126.543C70.7346 127.252 71.3575 127.872 72.0693 128.404C72.7812 128.936 73.5524 129.32 74.383 129.556C75.2728 129.792 76.1627 129.911 77.0525 129.911C77.9424 129.911 78.8025 129.792 79.6331 129.556C80.5229 129.32 81.3238 128.936 82.0357 128.404C82.7475 127.872 83.3408 127.252 83.8154 126.543C84.3493 125.775 84.7645 124.977 85.0612 124.15C85.3578 123.264 85.5357 122.407 85.5951 121.58C85.7137 120.694 85.773 119.808 85.773 118.922V71.1564H93.7817V95.0391V118.922C93.7817 120.458 93.663 121.994 93.4257 123.53C93.1885 125.066 92.7435 126.543 92.091 127.961C91.4977 129.379 90.6672 130.708 89.5994 131.949C88.5909 133.13 87.4044 134.105 86.04 134.873C84.7349 135.641 83.2815 136.173 81.6797 136.468C80.1373 136.823 78.5949 137 77.0525 137Z" fill="#F35E3E"/>
<path d="M163.1 97.2989L163.431 96.9237L155.384 89.8342L155.054 90.2094L154.723 90.5845L162.77 97.674L163.1 97.2989ZM175.069 82.4583L174.279 83.0721L175.069 84.0877L175.858 83.0721L175.069 82.4583ZM18.2631 66.1347V67.1347H18.9988L19.2178 66.4323L18.2631 66.1347ZM11.3223 66.1347L10.4115 66.5477L10.6777 67.1347H11.3223V66.1347ZM8.91966 60.5517L7.98381 60.9041L7.98861 60.9168L7.99374 60.9294L8.91966 60.5517ZM6.78402 54.9687L5.84812 55.3211L5.85196 55.331L6.78402 54.9687ZM4.73737 49.2971L3.78068 49.5882L3.78606 49.6059L3.7921 49.6234L4.73737 49.2971ZM3.04665 43.4483L2.08217 43.7124V43.7124L3.04665 43.4483ZM1.6229 37.5995L0.643586 37.8019L0.644836 37.8078L1.6229 37.5995ZM1 20.053V19.053H0V20.053H1ZM8.91966 20.053H9.91966V19.053H8.91966V20.053ZM10.9663 46.1955L9.98976 46.4107L9.99288 46.4249L9.99641 46.439L10.9663 46.1955ZM12.746 53.3736L11.7747 53.6115L11.7782 53.6257L11.7821 53.6398L12.746 53.3736ZM14.7927 60.4631L13.8352 60.7515L14.7763 63.8755L15.7474 60.7607L14.7927 60.4631ZM21.6445 38.4857L22.5992 38.7833L22.6445 38.6379V38.4857H21.6445ZM21.6445 27.1425V26.1425H20.6445V27.1425H21.6445ZM28.6743 27.1425H29.6743V26.1425H28.6743V27.1425ZM28.6743 38.4857H27.6743V38.636L27.7186 38.7798L28.6743 38.4857ZM35.4372 60.4631L34.4814 60.7572L35.4474 63.8962L36.3947 60.7515L35.4372 60.4631ZM37.4838 53.3736L38.4478 53.6398L38.4494 53.6337L37.4838 53.3736ZM39.2635 46.1955L40.239 46.4159L40.2401 46.4107L39.2635 46.1955ZM40.6873 38.9288L39.7017 38.7598V38.7598L40.6873 38.9288ZM41.3102 20.053V19.053H40.3102V20.053H41.3102ZM49.3189 20.053H50.3189V19.053H49.3189V20.053ZM48.696 37.5995L49.674 37.8078L49.6753 37.8019L48.696 37.5995ZM47.2722 43.4483L46.3077 43.1842V43.1842L47.2722 43.4483ZM45.4925 49.2971L46.4378 49.6234L46.4408 49.6145L45.4925 49.2971ZM43.4458 54.9687L42.51 54.6163L42.5068 54.6247L42.5039 54.6331L43.4458 54.9687ZM41.3102 60.5517L42.2361 60.9294V60.9294L41.3102 60.5517ZM38.9966 66.1347V67.1347H39.6605L39.9182 66.5227L38.9966 66.1347ZM31.9668 66.1347L31.0121 66.4323L31.2311 67.1347H31.9668V66.1347ZM25.1149 44.1573L26.0696 43.8596L25.1149 40.7975L24.1603 43.8596L25.1149 44.1573ZM60.3523 66.1347H59.3523V67.1347H60.3523V66.1347ZM60.3523 1V0H59.3523V1H60.3523ZM68.3609 1H69.3609V0H68.3609V1ZM68.3609 28.2945H67.3609L69.3092 28.6119L68.3609 28.2945ZM70.0517 24.7498L69.2142 24.2032L69.2072 24.2142L70.0517 24.7498ZM72.8102 21.7367L72.1978 20.9462V20.9462L72.8102 21.7367ZM76.3696 19.9644L76.6317 20.9294L76.6518 20.924L76.6717 20.9177L76.3696 19.9644ZM84.5562 20.053L84.2289 20.9979L84.2529 21.0062L84.2773 21.0133L84.5562 20.053ZM88.2936 22.0912L87.6308 22.84L87.6408 22.8489L87.651 22.8574L88.2936 22.0912ZM91.0521 25.3701L90.1848 25.8678V25.8678L91.0521 25.3701ZM92.7428 29.3579L91.7831 29.639L91.7865 29.6502L92.7428 29.3579ZM93.5437 33.523L92.5472 33.6064L92.5489 33.627L92.5515 33.6476L93.5437 33.523ZM93.8107 66.1347V67.1347H94.8107V66.1347H93.8107ZM85.802 66.1347H84.802V67.1347H85.802V66.1347ZM85.624 35.1182L84.626 35.1808L84.6282 35.2159L84.6329 35.2509L85.624 35.1182ZM85.0901 32.4596L84.1418 32.777L84.1452 32.7871L84.1488 32.7972L85.0901 32.4596ZM83.9333 29.9783L84.784 29.4526V29.4526L83.9333 29.9783ZM82.1536 28.0287L81.515 28.7982L81.5347 28.8145L81.5552 28.8299L82.1536 28.0287ZM79.751 26.788L80.0077 25.8215V25.8215L79.751 26.788ZM74.4119 26.788L74.1553 25.8215V25.8215L74.4119 26.788ZM72.0093 28.0287L72.6077 28.8299L72.6282 28.8145L72.6479 28.7982L72.0093 28.0287ZM69.0728 32.4596L70.0141 32.7972L70.0177 32.7871L70.0211 32.777L69.0728 32.4596ZM68.4499 35.1182L67.4577 34.9936L67.4541 35.0224L67.4522 35.0514L68.4499 35.1182ZM68.3609 66.1347V67.1347H69.3609V66.1347H68.3609ZM116.769 66.4005L116.95 65.4171V65.4171L116.769 66.4005ZM112.231 64.8054L111.712 65.6605L111.734 65.6736L111.756 65.6855L112.231 64.8054ZM108.493 61.7924L107.735 62.4447L107.752 62.4641L107.77 62.4826L108.493 61.7924ZM105.824 57.8045L104.909 58.2086L104.919 58.2312L104.93 58.2532L105.824 57.8045ZM104.489 53.1964L105.478 53.0492V53.0492L104.489 53.1964ZM104.489 32.9913L103.506 32.8085L103.502 32.8263L103.5 32.8442L104.489 32.9913ZM105.913 28.4718L106.821 28.8898L106.824 28.8829L106.827 28.8759L105.913 28.4718ZM108.493 24.4839L107.753 23.8115L107.751 23.8134L108.493 24.4839ZM112.32 21.4709L112.794 22.351L112.808 22.3435L112.822 22.3356L112.32 21.4709ZM116.769 19.7871L116.587 18.8037L116.581 18.805L116.769 19.7871ZM125.934 19.6099L126.058 18.6176L126.058 18.6176L125.934 19.6099ZM130.028 20.6733L129.65 21.5994L129.675 21.6095L129.7 21.6182L130.028 20.6733ZM133.765 22.7116L133.147 23.4977L133.169 23.5155L133.193 23.5319L133.765 22.7116ZM136.701 25.7246L135.864 26.2712L135.873 26.2856L135.883 26.2996L136.701 25.7246ZM138.481 29.6238L137.511 29.8673L137.514 29.8772L138.481 29.6238ZM138.481 38.0426L139.451 38.286V38.286L138.481 38.0426ZM136.612 41.8532L135.829 41.2319L135.818 41.245L135.809 41.2584L136.612 41.8532ZM133.498 44.7776L134.041 45.6171L134.051 45.6107L133.498 44.7776ZM129.672 46.6386L129.962 47.5956L129.98 47.5899L129.999 47.5835L129.672 46.6386ZM125.489 47.5248L125.366 46.5324L125.36 46.5331L125.489 47.5248ZM112.142 47.7906V46.7906H111.142V47.7906H112.142ZM112.586 52.576L111.609 52.7893V52.7893L112.586 52.576ZM114.277 56.3866L113.459 56.9617L113.466 56.9716L113.473 56.9814L114.277 56.3866ZM117.481 58.9566L117.068 59.8676L117.086 59.8754L117.103 59.8826L117.481 58.9566ZM124.777 59.4883L124.941 60.4748L124.967 60.4704L124.993 60.4646L124.777 59.4883ZM127.714 58.3362L128.227 59.1946L128.235 59.19L128.242 59.1852L127.714 58.3362ZM129.939 56.0321L129.092 55.5006L129.079 55.5202L129.068 55.5403L129.939 56.0321ZM130.828 52.9305V51.9305H129.828V52.9305H130.828ZM138.837 52.9305H139.837V51.9305H138.837V52.9305ZM138.125 57.0956L137.181 56.7658L137.177 56.7785L137.173 56.7912L138.125 57.0956ZM136.256 60.7289L135.453 60.1341L135.442 60.1482L135.432 60.1627L136.256 60.7289ZM133.409 63.6533L134.001 64.4596V64.4596L133.409 63.6533ZM129.761 65.603L129.42 64.6627V64.6627L129.761 65.603ZM125.667 66.5778L125.544 65.5854L125.538 65.5861L125.667 66.5778ZM112.142 40.7011H111.142V41.7011H112.142V40.7011ZM123.532 40.6125L123.455 39.6154V39.6154L123.532 40.6125ZM127.803 39.2832L128.28 40.162V40.162L127.803 39.2832ZM129.494 37.9539L128.752 37.2834L128.748 37.2881L129.494 37.9539ZM130.65 36.0043L131.599 36.3218V36.3217L130.65 36.0043ZM130.206 30.5986L129.292 31.0061L129.306 31.0376L129.323 31.068L130.206 30.5986ZM128.07 28.1173L127.505 28.9424L127.523 28.9547L127.541 28.9663L128.07 28.1173ZM124.955 26.788L124.739 27.7644L124.75 27.7667L124.955 26.788ZM117.481 27.3197L117.858 28.2458L117.868 28.2417L117.878 28.2374L117.481 27.3197ZM112.586 33.6116L113.564 33.8249L113.565 33.8164L112.586 33.6116ZM155.092 97.2989L154.092 97.3042L154.097 98.2989H155.092V97.2989ZM154.676 20.053V19.053H153.671L153.676 20.0584L154.676 20.053ZM162.685 20.053H163.685V19.053H162.685V20.053ZM162.685 29.801H161.685L163.65 30.0652L162.685 29.801ZM164.109 25.9904L165.011 26.4218V26.4218L164.109 25.9904ZM166.333 22.6229L165.587 21.957L165.585 21.9598L166.333 22.6229ZM169.626 20.2302L170.018 21.15L170.028 21.1457L170.038 21.1412L169.626 20.2302ZM176.923 19.7871L176.656 20.751L176.669 20.7545L176.923 19.7871ZM179.859 21.2937L179.21 22.0542L179.223 22.0652L179.236 22.0758L179.859 21.2937ZM181.995 23.775L181.124 24.2668L181.135 24.2869L181.148 24.3066L181.995 23.775ZM183.33 26.788L184.293 26.5193V26.5193L183.33 26.788ZM183.952 30.0669L182.958 30.172L182.959 30.1778L183.952 30.0669ZM184.13 33.3458V34.3458H185.13V33.3458H184.13ZM176.122 33.3458H175.122V34.3458H176.122V33.3458ZM175.944 30.9531L174.954 31.0951L174.956 31.1058L175.944 30.9531ZM175.143 28.649L174.249 29.0977L174.264 29.1266L174.28 29.1544L175.143 28.649ZM173.452 27.0539L172.95 27.9185L172.991 27.9425L173.035 27.9625L173.452 27.0539ZM168.024 27.2311L167.558 26.3465L167.547 26.3524L167.535 26.3587L168.024 27.2311ZM165.622 29.3579L166.407 29.9773L166.417 29.9643L166.427 29.9509L165.622 29.3579ZM164.109 32.1937L165.051 32.5278L165.054 32.5195L165.057 32.5111L164.109 32.1937ZM163.219 35.2954L162.243 35.0776V35.0776L163.219 35.2954ZM162.685 41.6759H161.685L161.685 41.6834L162.685 41.6759ZM205.754 66.4005L205.935 65.4171V65.4171L205.754 66.4005ZM201.216 64.8054L200.697 65.6605L200.719 65.6736L200.741 65.6855L201.216 64.8054ZM197.478 61.7924L196.72 62.4447L196.737 62.4641L196.755 62.4826L197.478 61.7924ZM194.809 57.8045L193.894 58.2086L193.904 58.2312L193.915 58.2532L194.809 57.8045ZM193.474 53.1964L194.463 53.0492V53.0492L193.474 53.1964ZM193.474 32.9913L192.491 32.8085L192.487 32.8263L192.485 32.8442L193.474 32.9913ZM194.898 28.4718L195.806 28.8898L195.809 28.8829L195.812 28.8759L194.898 28.4718ZM197.478 24.4839L196.738 23.8115L196.736 23.8134L197.478 24.4839ZM201.305 21.4709L201.779 22.351L201.793 22.3435L201.807 22.3356L201.305 21.4709ZM205.754 19.7871L205.572 18.8037L205.566 18.805L205.754 19.7871ZM214.919 19.6099L215.043 18.6176L215.043 18.6176L214.919 19.6099ZM219.013 20.6733L218.635 21.5994L218.66 21.6095L218.685 21.6182L219.013 20.6733ZM222.75 22.7116L222.132 23.4977L222.154 23.5155L222.178 23.5319L222.75 22.7116ZM225.686 25.7246L224.849 26.2712L224.858 26.2856L224.868 26.2996L225.686 25.7246ZM227.466 29.6238L226.496 29.8673L226.499 29.8772L227.466 29.6238ZM227.466 38.0426L228.436 38.286V38.286L227.466 38.0426ZM225.597 41.8532L224.814 41.2319L224.803 41.245L224.794 41.2584L225.597 41.8532ZM222.483 44.7776L223.026 45.6171L223.036 45.6107L222.483 44.7776ZM218.657 46.6386L218.947 47.5956L218.965 47.5899L218.984 47.5835L218.657 46.6386ZM214.474 47.5248L214.351 46.5324L214.345 46.5331L214.474 47.5248ZM201.127 47.7906V46.7906H200.127V47.7906H201.127ZM201.571 52.576L200.594 52.7893V52.7893L201.571 52.576ZM203.262 56.3866L202.444 56.9617L202.451 56.9716L202.458 56.9814L203.262 56.3866ZM206.466 58.9566L206.053 59.8676L206.071 59.8754L206.088 59.8826L206.466 58.9566ZM213.762 59.4883L213.926 60.4748L213.952 60.4704L213.978 60.4646L213.762 59.4883ZM216.699 58.3362L217.212 59.1946L217.22 59.19L217.227 59.1852L216.699 58.3362ZM218.924 56.0321L218.077 55.5006L218.064 55.5202L218.053 55.5403L218.924 56.0321ZM219.813 52.9305V51.9305H218.813V52.9305H219.813ZM227.822 52.9305H228.822V51.9305H227.822V52.9305ZM227.11 57.0956L226.166 56.7658L226.162 56.7785L226.158 56.7912L227.11 57.0956ZM225.241 60.7289L224.438 60.1341L224.427 60.1482L224.417 60.1627L225.241 60.7289ZM222.394 63.6533L222.986 64.4596V64.4596L222.394 63.6533ZM218.746 65.603L218.405 64.6627V64.6627L218.746 65.603ZM214.652 66.5778L214.529 65.5854L214.523 65.5861L214.652 66.5778ZM201.127 40.7011H200.127V41.7011H201.127V40.7011ZM212.517 40.6125L212.44 39.6154V39.6154L212.517 40.6125ZM216.788 39.2832L217.265 40.162V40.162L216.788 39.2832ZM218.479 37.9539L217.737 37.2834L217.733 37.2881L218.479 37.9539ZM219.635 36.0043L220.584 36.3218V36.3217L219.635 36.0043ZM219.19 30.5986L218.277 31.0061L218.291 31.0376L218.308 31.068L219.19 30.5986ZM217.055 28.1173L216.49 28.9424L216.508 28.9547L216.526 28.9663L217.055 28.1173ZM213.94 26.788L213.724 27.7644L213.735 27.7667L213.94 26.788ZM206.466 27.3197L206.843 28.2458L206.853 28.2417L206.863 28.2374L206.466 27.3197ZM201.571 33.6116L202.549 33.8249L202.55 33.8164L201.571 33.6116ZM122.079 136.291V137.291H122.815L123.034 136.589L122.079 136.291ZM115.138 136.291L114.227 136.704L114.494 137.291H115.138V136.291ZM112.735 130.708L111.8 131.06L111.804 131.073L111.81 131.086L112.735 130.708ZM110.6 125.125L109.664 125.478L109.668 125.487L110.6 125.125ZM108.553 119.454L107.596 119.745L107.602 119.762L107.608 119.78L108.553 119.454ZM106.862 113.605L105.898 113.869V113.869L106.862 113.605ZM105.439 107.756L104.459 107.958L104.461 107.964L105.439 107.756ZM104.816 90.2094V89.2094H103.816V90.2094H104.816ZM112.735 90.2094H113.735V89.2094H112.735V90.2094ZM114.782 116.352L113.806 116.567L113.809 116.581L113.812 116.595L114.782 116.352ZM116.562 123.53L115.591 123.768L115.594 123.782L115.598 123.796L116.562 123.53ZM118.608 130.619L117.651 130.908L118.592 134.032L119.563 130.917L118.608 130.619ZM125.46 108.642L126.415 108.94L126.46 108.794V108.642H125.46ZM125.46 97.2989V96.2989H124.46V97.2989H125.46ZM132.49 97.2989H133.49V96.2989H132.49V97.2989ZM132.49 108.642H131.49V108.792L131.534 108.936L132.49 108.642ZM139.253 130.619L138.297 130.914L139.263 134.053L140.211 130.908L139.253 130.619ZM141.3 123.53L142.264 123.796L142.265 123.79L141.3 123.53ZM143.079 116.352L144.055 116.572L144.056 116.567L143.079 116.352ZM144.503 109.085L143.518 108.916V108.916L144.503 109.085ZM145.126 90.2094V89.2094H144.126V90.2094H145.126ZM154.225 97.2989V96.2989H153.225V97.2989H154.225ZM152.512 107.756L153.49 107.964L153.491 107.958L152.512 107.756ZM151.088 113.605L150.124 113.341V113.341L151.088 113.605ZM149.308 119.454L150.254 119.78L150.257 119.771L149.308 119.454ZM147.262 125.125L146.326 124.773L146.323 124.781L146.32 124.789L147.262 125.125ZM145.126 130.708L146.052 131.086V131.086L145.126 130.708ZM142.812 136.291V137.291H143.476L143.734 136.679L142.812 136.291ZM135.783 136.291L134.828 136.589L135.047 137.291H135.783V136.291ZM128.931 114.314L129.885 114.016L128.931 110.954L127.976 114.016L128.931 114.314ZM185.702 136.291V137.291H186.702V136.291H185.702ZM178.584 136.025L178.42 137.012L178.428 137.013L178.584 136.025ZM175.469 135.05L175.003 135.935L175.024 135.946L175.045 135.956L175.469 135.05ZM172.711 133.101L171.979 133.783L172.005 133.81L172.032 133.835L172.711 133.101ZM170.753 130.354L169.849 130.781L169.859 130.802L169.87 130.823L170.753 130.354ZM169.774 127.163L168.786 127.32V127.32L169.774 127.163ZM169.507 97.2989H170.507V96.2989H169.507V97.2989ZM177.516 90.2094H178.516V89.2094H177.516V90.2094ZM177.694 125.834L178.678 125.654V125.654L177.694 125.834ZM180.007 128.847L179.562 129.742L179.613 129.768L179.667 129.787L180.007 128.847ZM185.702 129.202H186.702V128.202H185.702V129.202ZM193.801 136.291H192.801V137.291H193.801V136.291ZM193.801 90.2094V89.2094H192.801V90.2094H193.801ZM201.809 90.2094H202.809V89.2094H201.809V90.2094ZM201.809 98.4509H200.809L202.758 98.7683L201.809 98.4509ZM203.5 94.9062L202.663 94.3595L202.656 94.3706L203.5 94.9062ZM206.259 91.8931L205.646 91.1026V91.1026L206.259 91.8931ZM209.818 90.1208L210.08 91.0858L210.1 91.0803L210.12 91.074L209.818 90.1208ZM218.005 90.2094L217.677 91.1543L217.701 91.1626L217.726 91.1697L218.005 90.2094ZM221.742 92.2476L221.079 92.9964L221.089 93.0052L221.1 93.0138L221.742 92.2476ZM224.501 95.5265L223.633 96.0242V96.0242L224.501 95.5265ZM226.191 99.5143L225.232 99.7954L225.235 99.8066L226.191 99.5143ZM226.992 103.679L225.996 103.763L225.997 103.783L226 103.804L226.992 103.679ZM227.259 136.291V137.291H228.259V136.291H227.259ZM219.251 136.291H218.251V137.291H219.251V136.291ZM219.073 105.275L218.075 105.337L218.077 105.372L218.081 105.407L219.073 105.275ZM218.539 102.616L217.59 102.933L217.594 102.944L217.597 102.954L218.539 102.616ZM217.382 100.135L218.233 99.609V99.609L217.382 100.135ZM215.602 98.185L214.964 98.9546L214.983 98.9709L215.004 98.9862L215.602 98.185ZM213.2 96.9444L213.456 95.9779V95.9779L213.2 96.9444ZM207.86 96.9444L207.604 95.9779V95.9779L207.86 96.9444ZM205.458 98.185L206.056 98.9862L206.077 98.9709L206.096 98.9546L205.458 98.185ZM202.521 102.616L203.463 102.954L203.466 102.944L203.47 102.933L202.521 102.616ZM201.898 105.275L200.906 105.15L200.903 105.179L200.901 105.208L201.898 105.275ZM201.809 136.291V137.291H202.809V136.291H201.809ZM28.5557 136.291H27.5557V137.291H28.5557V136.291ZM28.5557 78.2459H29.5557V77.2459H28.5557V78.2459ZM15.2969 78.2459H14.2969V79.2459H15.2969V78.2459ZM15.2969 71.1564V70.1564H14.2969V71.1564H15.2969ZM60.3233 78.2459V79.2459H61.3233V78.2459H60.3233ZM36.5643 78.2459V77.2459H35.5643V78.2459H36.5643ZM36.5643 136.291V137.291H37.5643V136.291H36.5643ZM72.3363 136.468L72.5524 135.492L72.5384 135.489L72.5244 135.486L72.3363 136.468ZM67.976 134.873L67.4689 135.735L67.4771 135.74L67.4855 135.745L67.976 134.873ZM64.4166 131.949L63.6407 132.579L63.6572 132.6L63.6747 132.619L64.4166 131.949ZM61.9251 127.961L61.0025 128.347L61.0093 128.363L61.0166 128.379L61.9251 127.961ZM60.6793 123.53L59.691 123.683V123.683L60.6793 123.53ZM68.332 71.1564H69.332V70.1564H68.332V71.1564ZM68.421 121.58L67.4232 121.647L67.4257 121.685L67.4311 121.722L68.421 121.58ZM69.0439 124.15L68.0956 124.468L68.0989 124.478L68.1026 124.488L69.0439 124.15ZM70.2007 126.543L69.35 127.069L69.3742 127.108L69.4018 127.145L70.2007 126.543ZM72.0693 128.404L71.4709 129.205V129.205L72.0693 128.404ZM74.383 129.556L74.1093 130.518L74.1178 130.52L74.1263 130.523L74.383 129.556ZM79.6331 129.556L79.3764 128.59L79.3679 128.592L79.3594 128.594L79.6331 129.556ZM82.0357 128.404L82.6341 129.205H82.6341L82.0357 128.404ZM83.8154 126.543L82.9943 125.972L82.9893 125.979L82.9844 125.987L83.8154 126.543ZM85.0612 124.15L86.0025 124.488L86.0061 124.478L86.0094 124.468L85.0612 124.15ZM85.5951 121.58L84.6039 121.448L84.5998 121.478L84.5976 121.509L85.5951 121.58ZM85.773 71.1564V70.1564H84.773V71.1564H85.773ZM93.7817 71.1564H94.7817V70.1564H93.7817V71.1564ZM93.4257 123.53L92.4375 123.377V123.377L93.4257 123.53ZM92.091 127.961L91.1826 127.543L91.1752 127.559L91.1685 127.575L92.091 127.961ZM89.5994 131.949L88.8415 131.296L88.8388 131.3L89.5994 131.949ZM86.04 134.873L85.5495 134.002L85.5411 134.006L85.5328 134.011L86.04 134.873ZM81.6797 136.468L81.4984 135.485L81.477 135.489L81.4557 135.494L81.6797 136.468ZM175.069 72.7657V71.7657C174.86 71.7657 174.623 71.6704 174.422 71.4374L173.664 72.0897L172.906 72.7421C173.451 73.3746 174.224 73.7657 175.069 73.7657V72.7657ZM173.664 72.0897L174.422 71.4374C174.218 71.1997 174.083 70.8492 174.083 70.4579H173.083H172.083C172.083 71.2907 172.366 72.1142 172.906 72.7421L173.664 72.0897ZM173.083 70.4579H174.083C174.083 70.0666 174.218 69.7161 174.422 69.4784L173.664 68.826L172.906 68.1737C172.366 68.8016 172.083 69.625 172.083 70.4579H173.083ZM173.664 68.826L174.422 69.4784C174.623 69.2454 174.86 69.1501 175.069 69.1501V68.1501V67.1501C174.224 67.1501 173.451 67.5412 172.906 68.1737L173.664 68.826ZM175.069 68.1501V69.1501C175.278 69.1501 175.515 69.2454 175.715 69.4784L176.473 68.826L177.231 68.1737C176.687 67.5412 175.913 67.1501 175.069 67.1501V68.1501ZM176.473 68.826L175.715 69.4784C175.92 69.7161 176.055 70.0666 176.055 70.4579H177.055H178.055C178.055 69.6251 177.772 68.8016 177.231 68.1737L176.473 68.826ZM177.055 70.4579H176.055C176.055 70.6488 176.023 70.8352 175.962 71.0052L176.904 71.341L177.846 71.6768C177.985 71.2869 178.055 70.8731 178.055 70.4579H177.055ZM176.904 71.341L175.962 71.0052C175.901 71.1753 175.815 71.3211 175.715 71.4374L176.473 72.0897L177.231 72.7421C177.5 72.4298 177.707 72.0667 177.846 71.6768L176.904 71.341ZM176.473 72.0897L175.715 71.4374C175.615 71.5534 175.505 71.636 175.395 71.6889L175.829 72.59L176.263 73.4911C176.635 73.312 176.962 73.0546 177.231 72.7421L176.473 72.0897ZM175.829 72.59L175.395 71.6889C175.286 71.7415 175.176 71.7657 175.069 71.7657V72.7657V73.7657C175.484 73.7657 175.89 73.6705 176.263 73.4911L175.829 72.59ZM175.069 63.9961V62.9961C173.276 62.9961 171.593 63.8248 170.378 65.2364L171.136 65.8887L171.894 66.5411C172.765 65.529 173.912 64.9961 175.069 64.9961V63.9961ZM171.136 65.8887L170.378 65.2364C169.167 66.6433 168.507 68.5233 168.507 70.4579H169.507H170.507C170.507 68.9649 171.019 67.5578 171.894 66.5411L171.136 65.8887ZM169.507 70.4579H168.507C168.507 71.8437 168.901 73.3304 169.443 74.7373C169.99 76.1547 170.712 77.5527 171.423 78.7777C172.136 80.0051 172.847 81.0748 173.38 81.8374C173.647 82.2192 173.87 82.5253 174.027 82.7371C174.105 82.843 174.167 82.9254 174.21 82.982C174.232 83.0103 174.248 83.0321 174.26 83.0473C174.266 83.0548 174.27 83.0607 174.274 83.0648C174.275 83.0669 174.277 83.0686 174.277 83.0698C174.278 83.0704 174.278 83.0709 174.279 83.0713C174.279 83.0714 174.279 83.0716 174.279 83.0717C174.279 83.0719 174.279 83.0721 175.069 82.4583C175.858 81.8446 175.858 81.8447 175.858 81.8447C175.858 81.8447 175.858 81.8448 175.858 81.8448C175.858 81.8447 175.858 81.8446 175.858 81.8443C175.858 81.8438 175.857 81.8428 175.856 81.8414C175.854 81.8387 175.85 81.8342 175.846 81.8281C175.836 81.8158 175.822 81.7969 175.802 81.7716C175.764 81.721 175.707 81.645 175.633 81.5458C175.486 81.3474 175.274 81.0567 175.02 80.6921C174.509 79.9619 173.83 78.9402 173.153 77.7733C172.474 76.604 171.805 75.3047 171.309 74.0177C170.809 72.7202 170.507 71.4953 170.507 70.4579H169.507ZM175.069 82.4583C175.858 83.0721 175.858 83.0719 175.859 83.0717C175.859 83.0716 175.859 83.0714 175.859 83.0713C175.859 83.0709 175.86 83.0704 175.86 83.0698C175.861 83.0686 175.862 83.0669 175.864 83.0648C175.867 83.0607 175.872 83.0548 175.877 83.0473C175.889 83.0321 175.906 83.0103 175.927 82.982C175.97 82.9254 176.032 82.843 176.111 82.7371C176.268 82.5253 176.491 82.2192 176.758 81.8374C177.29 81.0748 178.002 80.0051 178.714 78.7777C179.426 77.5527 180.148 76.1547 180.694 74.7373C181.237 73.3304 181.63 71.8437 181.63 70.4579H180.63H179.63C179.63 71.4953 179.329 72.7202 178.828 74.0177C178.332 75.3047 177.664 76.604 176.985 77.7733C176.307 78.9402 175.628 79.9619 175.118 80.6921C174.863 81.0567 174.652 81.3474 174.504 81.5458C174.431 81.645 174.374 81.721 174.335 81.7716C174.316 81.7969 174.301 81.8158 174.292 81.8281C174.287 81.8342 174.284 81.8387 174.282 81.8414C174.281 81.8428 174.28 81.8438 174.279 81.8443C174.279 81.8446 174.279 81.8447 174.279 81.8448C174.279 81.8448 174.279 81.8447 174.279 81.8447C174.279 81.8447 174.279 81.8446 175.069 82.4583ZM180.63 70.4579H181.63C181.63 68.5233 180.97 66.6433 179.759 65.2364L179.001 65.8887L178.243 66.5411C179.119 67.5578 179.63 68.9649 179.63 70.4579H180.63ZM179.001 65.8887L179.759 65.2364C178.544 63.8248 176.862 62.9961 175.069 62.9961V63.9961V64.9961C176.226 64.9961 177.372 65.529 178.243 66.5411L179.001 65.8887ZM18.2631 66.1347V65.1347H11.3223V66.1347V67.1347H18.2631V66.1347ZM11.3223 66.1347L12.233 65.7217C11.4078 63.9021 10.612 62.0528 9.84559 60.174L8.91966 60.5517L7.99374 60.9294C8.76971 62.8316 9.57563 64.7044 10.4115 66.5477L11.3223 66.1347ZM8.91966 60.5517L9.85552 60.1993C9.14243 58.3055 8.42928 56.4413 7.71609 54.6064L6.78402 54.9687L5.85196 55.331C6.56253 57.1591 7.27314 59.0168 7.98381 60.9041L8.91966 60.5517ZM6.78402 54.9687L7.71988 54.6163C7.01122 52.7344 6.33215 50.8525 5.68264 48.9708L4.73737 49.2971L3.7921 49.6234C4.4477 51.5228 5.13306 53.422 5.84817 55.3211L6.78402 54.9687ZM4.73737 49.2971L5.69406 49.006C5.10353 47.0653 4.54256 45.1247 4.01114 43.1842L3.04665 43.4483L2.08217 43.7124C2.61857 45.6711 3.18474 47.6297 3.78068 49.5882L4.73737 49.2971ZM3.04665 43.4483L4.01114 43.1842C3.48222 41.2528 3.01217 39.3218 2.60095 37.3912L1.6229 37.5995L0.644836 37.8078C1.06414 39.7764 1.54327 41.7446 2.08217 43.7124L3.04665 43.4483ZM1.6229 37.5995L2.60219 37.397C2.2004 35.4535 2 33.5127 2 31.5734H1H0C0 33.6515 0.214862 35.7281 0.643603 37.8019L1.6229 37.5995ZM1 31.5734H2V20.053H1H0V31.5734H1ZM1 20.053V21.053H8.91966V20.053V19.053H1V20.053ZM8.91966 20.053H7.91966V31.5734H8.91966H9.91966V20.053H8.91966ZM8.91966 31.5734H7.91966C7.91966 34.1108 8.13201 36.6191 8.55694 39.0977L9.54256 38.9288L10.5282 38.7598C10.1226 36.3939 9.91966 33.9986 9.91966 31.5734H8.91966ZM9.54256 38.9288L8.55694 39.0977C8.97488 41.5356 9.4525 43.9733 9.98976 46.4107L10.9663 46.1955L11.9429 45.9802C11.4123 43.5732 10.9408 41.1664 10.5282 38.7598L9.54256 38.9288ZM10.9663 46.1955L9.99641 46.439C10.5892 48.8002 11.1819 51.191 11.7747 53.6115L12.746 53.3736L13.7173 53.1357C13.1236 50.7116 12.5299 48.3171 11.9362 45.952L10.9663 46.1955ZM12.746 53.3736L11.7821 53.6398C12.4367 56.0104 13.1211 58.381 13.8352 60.7515L14.7927 60.4631L15.7502 60.1746C15.0405 57.8188 14.3604 55.4631 13.7099 53.1074L12.746 53.3736ZM14.7927 60.4631L15.7474 60.7607L22.5992 38.7833L21.6445 38.4857L20.6898 38.188L13.838 60.1654L14.7927 60.4631ZM21.6445 38.4857H22.6445V27.1425H21.6445H20.6445V38.4857H21.6445ZM21.6445 27.1425V28.1425H28.6743V27.1425V26.1425H21.6445V27.1425ZM28.6743 27.1425H27.6743V38.4857H28.6743H29.6743V27.1425H28.6743ZM28.6743 38.4857L27.7186 38.7798L34.4814 60.7572L35.4372 60.4631L36.393 60.169L29.6301 38.1916L28.6743 38.4857ZM35.4372 60.4631L36.3947 60.7515C37.1088 58.381 37.7931 56.0104 38.4478 53.6398L37.4838 53.3736L36.5199 53.1074C35.8694 55.4631 35.1894 57.8188 34.4797 60.1746L35.4372 60.4631ZM37.4838 53.3736L38.4494 53.6337C39.1054 51.1987 39.7019 48.7928 40.239 46.4159L39.2635 46.1955L38.2881 45.9751C37.7573 48.3245 37.1674 50.7039 36.5183 53.1135L37.4838 53.3736ZM39.2635 46.1955L40.2401 46.4107C40.7774 43.9733 41.255 41.5356 41.6729 39.0977L40.6873 38.9288L39.7017 38.7598C39.2891 41.1664 38.8175 43.5732 38.287 45.9802L39.2635 46.1955ZM40.6873 38.9288L41.6729 39.0977C42.0979 36.6191 42.3102 34.1108 42.3102 31.5734H41.3102H40.3102C40.3102 33.9986 40.1073 36.3939 39.7017 38.7598L40.6873 38.9288ZM41.3102 31.5734H42.3102V20.053H41.3102H40.3102V31.5734H41.3102ZM41.3102 20.053V21.053H49.3189V20.053V19.053H41.3102V20.053ZM49.3189 20.053H48.3189V31.5734H49.3189H50.3189V20.053H49.3189ZM49.3189 31.5734H48.3189C48.3189 33.5127 48.1185 35.4535 47.7167 37.397L48.696 37.5995L49.6753 37.8019C50.104 35.728 50.3189 33.6515 50.3189 31.5734H49.3189ZM48.696 37.5995L47.7179 37.3912C47.3067 39.3218 46.8366 41.2528 46.3077 43.1842L47.2722 43.4483L48.2367 43.7124C48.7756 41.7446 49.2547 39.7764 49.674 37.8078L48.696 37.5995ZM47.2722 43.4483L46.3077 43.1842C45.7788 45.1156 45.191 47.0474 44.5442 48.9797L45.4925 49.2971L46.4408 49.6145C47.0991 47.6476 47.6978 45.6803 48.2367 43.7124L47.2722 43.4483ZM45.4925 49.2971L44.5472 48.9708C43.8977 50.8525 43.2186 52.7344 42.51 54.6163L43.4458 54.9687L44.3817 55.3211C45.0968 53.422 45.7822 51.5228 46.4378 49.6234L45.4925 49.2971ZM43.4458 54.9687L42.5039 54.6331C41.8566 56.4497 41.1501 58.2967 40.3843 60.174L41.3102 60.5517L42.2361 60.9294C43.0127 59.0257 43.73 57.1506 44.3878 55.3044L43.4458 54.9687ZM41.3102 60.5517L40.3843 60.174C39.6145 62.0611 38.8447 63.9187 38.075 65.7466L38.9966 66.1347L39.9182 66.5227C40.6909 64.6878 41.4635 62.8233 42.2361 60.9294L41.3102 60.5517ZM38.9966 66.1347V65.1347H31.9668V66.1347V67.1347H38.9966V66.1347ZM31.9668 66.1347L32.9215 65.837L26.0696 43.8596L25.1149 44.1573L24.1603 44.4549L31.0121 66.4323L31.9668 66.1347ZM25.1149 44.1573L24.1603 43.8596L17.3084 65.837L18.2631 66.1347L19.2178 66.4323L26.0696 44.4549L25.1149 44.1573ZM60.3523 66.1347H61.3523V1H60.3523H59.3523V66.1347H60.3523ZM60.3523 1V2H68.3609V1V0H60.3523V1ZM68.3609 1H67.3609V28.2945H68.3609H69.3609V1H68.3609ZM68.3609 28.2945L69.3092 28.6119C69.6984 27.4491 70.2269 26.3407 70.8961 25.2854L70.0517 24.7498L69.2072 24.2142C68.4527 25.4039 67.854 26.6586 67.4127 27.9771L68.3609 28.2945ZM70.0517 24.7498L70.8891 25.2964C71.6021 24.2039 72.4467 23.2832 73.4226 22.5273L72.8102 21.7367L72.1978 20.9462C71.038 21.8445 70.0436 22.9325 69.2142 24.2032L70.0517 24.7498ZM72.8102 21.7367L73.4226 22.5273C74.3861 21.781 75.4535 21.2494 76.6317 20.9294L76.3696 19.9644L76.1075 18.9993C74.6754 19.3883 73.3699 20.0383 72.1978 20.9462L72.8102 21.7367ZM76.3696 19.9644L76.6717 20.9177C77.8794 20.535 79.1123 20.344 80.3739 20.344V19.344V18.344C78.9066 18.344 77.47 18.5667 76.0675 19.0111L76.3696 19.9644ZM80.3739 19.344V20.344C81.6847 20.344 82.9682 20.5612 84.2289 20.9979L84.5562 20.053L84.8835 19.1081C83.4153 18.5995 81.9107 18.344 80.3739 18.344V19.344ZM84.5562 20.053L84.2773 21.0133C85.5648 21.3873 86.6781 21.9967 87.6308 22.84L88.2936 22.0912L88.9564 21.3425C87.7734 20.2952 86.3952 19.5458 84.8351 19.0927L84.5562 20.053ZM88.2936 22.0912L87.651 22.8574C88.6906 23.7293 89.5331 24.7321 90.1848 25.8678L91.0521 25.3701L91.9195 24.8724C91.1474 23.5268 90.1508 22.3437 88.9362 21.325L88.2936 22.0912ZM91.0521 25.3701L90.1848 25.8678C90.8562 27.0379 91.3893 28.2942 91.7831 29.639L92.7428 29.3579L93.7025 29.0769C93.2659 27.5859 92.6718 26.1836 91.9195 24.8724L91.0521 25.3701ZM92.7428 29.3579L91.7865 29.6502C92.1809 30.9409 92.4345 32.2593 92.5472 33.6064L93.5437 33.523L94.5402 33.4396C94.4156 31.951 94.1352 30.4926 93.6992 29.0657L92.7428 29.3579ZM93.5437 33.523L92.5515 33.6476C92.7243 35.0245 92.8107 36.4008 92.8107 37.7767H93.8107H94.8107C94.8107 36.3169 94.719 34.8574 94.5359 33.3985L93.5437 33.523ZM93.8107 37.7767H92.8107V66.1347H93.8107H94.8107V37.7767H93.8107ZM93.8107 66.1347V65.1347H85.802V66.1347V67.1347H93.8107V66.1347ZM85.802 66.1347H86.802V37.7767H85.802H84.802V66.1347H85.802ZM85.802 37.7767H86.802C86.802 36.8458 86.7397 35.9152 86.6152 34.9855L85.624 35.1182L84.6329 35.2509C84.7457 36.0934 84.802 36.9353 84.802 37.7767H85.802ZM85.624 35.1182L86.6221 35.0555C86.5573 34.0237 86.3622 33.0443 86.0314 32.122L85.0901 32.4596L84.1488 32.7972C84.4113 33.5291 84.5721 34.3221 84.626 35.1808L85.624 35.1182ZM85.0901 32.4596L86.0384 32.1422C85.7182 31.1856 85.3004 30.2883 84.784 29.4526L83.9333 29.9783L83.0826 30.5039C83.5154 31.2043 83.8688 31.9612 84.1418 32.777L85.0901 32.4596ZM83.9333 29.9783L84.784 29.4526C84.2445 28.5795 83.5662 27.8356 82.752 27.2275L82.1536 28.0287L81.5552 28.8299C82.1648 29.2852 82.673 29.841 83.0826 30.5039L83.9333 29.9783ZM82.1536 28.0287L82.7922 27.2592C81.9694 26.5763 81.0383 26.0952 80.0077 25.8215L79.751 26.788L79.4944 27.7545C80.2434 27.9534 80.9141 28.2995 81.515 28.7982L82.1536 28.0287ZM79.751 26.788L80.0077 25.8215C79.037 25.5637 78.0609 25.4335 77.0815 25.4335V26.4335V27.4335C77.8817 27.4335 78.6853 27.5397 79.4944 27.7545L79.751 26.788ZM77.0815 26.4335V25.4335C76.102 25.4335 75.1259 25.5637 74.1553 25.8215L74.4119 26.788L74.6686 27.7545C75.4776 27.5397 76.2812 27.4335 77.0815 27.4335V26.4335ZM74.4119 26.788L74.1553 25.8215C73.1246 26.0952 72.1936 26.5763 71.3707 27.2592L72.0093 28.0287L72.6479 28.7982C73.2488 28.2995 73.9195 27.9534 74.6686 27.7545L74.4119 26.788ZM72.0093 28.0287L71.4109 27.2275C70.5967 27.8356 69.9185 28.5795 69.3789 29.4526L70.2296 29.9783L71.0803 30.5039C71.49 29.841 71.9982 29.2852 72.6077 28.8299L72.0093 28.0287ZM70.2296 29.9783L69.3789 29.4526C68.8625 30.2883 68.4447 31.1856 68.1245 32.1422L69.0728 32.4596L70.0211 32.777C70.2942 31.9612 70.6476 31.2043 71.0803 30.5039L70.2296 29.9783ZM69.0728 32.4596L68.1315 32.122C67.8082 33.0236 67.5847 33.9817 67.4577 34.9936L68.4499 35.1182L69.4421 35.2427C69.5524 34.364 69.7442 33.5498 70.0141 32.7972L69.0728 32.4596ZM68.4499 35.1182L67.4522 35.0514C67.3913 35.9597 67.3609 36.8682 67.3609 37.7767H68.3609H69.3609C69.3609 36.9129 69.3899 36.049 69.4477 35.1849L68.4499 35.1182ZM68.3609 37.7767H67.3609V66.1347H68.3609H69.3609V37.7767H68.3609ZM68.3609 66.1347V65.1347H60.3523V66.1347V67.1347H68.3609V66.1347ZM121.574 66.8436V65.8436C120.034 65.8436 118.493 65.7017 116.95 65.4171L116.769 66.4005L116.587 67.3839C118.248 67.6902 119.91 67.8436 121.574 67.8436V66.8436ZM116.769 66.4005L116.95 65.4171C115.45 65.1405 114.037 64.6434 112.705 63.9253L112.231 64.8054L111.756 65.6855C113.272 66.5034 114.884 67.0697 116.587 67.3839L116.769 66.4005ZM112.231 64.8054L112.749 63.9502C111.462 63.1699 110.284 62.2214 109.217 61.1021L108.493 61.7924L107.77 62.4826C108.956 63.7264 110.271 64.7867 111.712 65.6605L112.231 64.8054ZM108.493 61.7924L109.251 61.14C108.235 59.9594 107.391 58.6982 106.717 57.3558L105.824 57.8045L104.93 58.2532C105.68 59.7466 106.616 61.1439 107.735 62.4447L108.493 61.7924ZM105.824 57.8045L106.738 57.4004C106.122 56.0052 105.702 54.5556 105.478 53.0492L104.489 53.1964L103.5 53.3435C103.75 55.0273 104.22 56.6498 104.909 58.2086L105.824 57.8045ZM104.489 53.1964L105.478 53.0492C105.248 51.5022 105.133 49.9563 105.133 48.4109H104.133H103.133C103.133 50.0559 103.255 51.7002 103.5 53.3435L104.489 53.1964ZM104.133 48.4109H105.133V37.7767H104.133H103.133V48.4109H104.133ZM104.133 37.7767H105.133C105.133 36.2314 105.248 34.6854 105.478 33.1385L104.489 32.9913L103.5 32.8442C103.255 34.4875 103.133 36.1318 103.133 37.7767H104.133ZM104.489 32.9913L105.472 33.1741C105.754 31.657 106.204 30.2298 106.821 28.8898L105.913 28.4718L105.004 28.0537C104.316 29.5495 103.817 31.1354 103.506 32.8085L104.489 32.9913ZM105.913 28.4718L106.827 28.8759C107.437 27.495 108.24 26.2559 109.235 25.1544L108.493 24.4839L107.751 23.8134C106.611 25.0751 105.693 26.4946 104.998 28.0676L105.913 28.4718ZM108.493 24.4839L109.233 25.1564C110.287 23.9964 111.474 23.0634 112.794 22.351L112.32 21.4709L111.845 20.5908C110.318 21.4145 108.953 22.4902 107.753 23.8115L108.493 24.4839ZM112.32 21.4709L112.822 22.3356C114.153 21.5623 115.53 21.0425 116.957 20.7693L116.769 19.7871L116.581 18.805C114.922 19.1226 113.334 19.7253 111.817 20.6062L112.32 21.4709ZM116.769 19.7871L116.95 20.7706C118.491 20.4864 120.062 20.344 121.663 20.344V19.344V18.344C119.942 18.344 118.25 18.4971 116.587 18.8037L116.769 19.7871ZM121.663 19.344V20.344C123.045 20.344 124.428 20.4301 125.811 20.6022L125.934 19.6099L126.058 18.6176C124.593 18.4353 123.128 18.344 121.663 18.344V19.344ZM125.934 19.6099L125.811 20.6022C127.149 20.7688 128.428 21.1014 129.65 21.5994L130.028 20.6733L130.405 19.7472C129.017 19.1818 127.567 18.8054 126.058 18.6176L125.934 19.6099ZM130.028 20.6733L129.7 21.6182C130.96 22.0547 132.108 22.6807 133.147 23.4977L133.765 22.7116L134.383 21.9254C133.168 20.97 131.824 20.2372 130.355 19.7284L130.028 20.6733ZM133.765 22.7116L133.193 23.5319C134.277 24.2875 135.165 25.1997 135.864 26.2712L136.701 25.7246L137.539 25.178C136.696 23.8863 135.626 22.7898 134.337 21.8912L133.765 22.7116ZM136.701 25.7246L135.883 26.2996C136.642 27.3797 137.185 28.5668 137.511 29.8673L138.481 29.6238L139.451 29.3803C139.066 27.845 138.421 26.4326 137.52 25.1495L136.701 25.7246ZM138.481 29.6238L137.514 29.8772C137.848 31.1525 138.015 32.4557 138.015 33.7889H139.015H140.015C140.015 32.2863 139.826 30.8127 139.448 29.3704L138.481 29.6238ZM139.015 33.7889H138.015C138.015 35.1222 137.848 36.4583 137.511 37.7991L138.481 38.0426L139.451 38.286C139.826 36.791 140.015 35.2914 140.015 33.7889H139.015ZM138.481 38.0426L137.511 37.7991C137.189 39.0822 136.629 40.223 135.829 41.2319L136.612 41.8532L137.396 42.4744C138.376 41.2383 139.061 39.8387 139.451 38.286L138.481 38.0426ZM136.612 41.8532L135.809 41.2584C135.052 42.281 134.101 43.1771 132.945 43.9445L133.498 44.7776L134.051 45.6107C135.387 44.7239 136.512 43.6703 137.416 42.448L136.612 41.8532ZM133.498 44.7776L132.955 43.9381C131.837 44.6615 130.634 45.2468 129.344 45.6937L129.672 46.6386L129.999 47.5835C131.438 47.0851 132.786 46.4297 134.041 45.6171L133.498 44.7776ZM129.672 46.6386L129.382 45.6816C128.072 46.0785 126.733 46.3622 125.366 46.5324L125.489 47.5248L125.613 48.5171C127.093 48.3329 128.542 48.0257 129.962 47.5956L129.672 46.6386ZM125.489 47.5248L125.36 46.5331C124.042 46.7044 122.661 46.7906 121.218 46.7906V47.7906V48.7906C122.741 48.7906 124.208 48.6996 125.618 48.5164L125.489 47.5248ZM121.218 47.7906V46.7906H112.142V47.7906V48.7906H121.218V47.7906ZM112.142 47.7906H111.142V48.4109H112.142H113.142V47.7906H112.142ZM112.142 48.4109H111.142C111.142 49.8991 111.297 51.359 111.609 52.7893L112.586 52.576L113.563 52.3627C113.282 51.0753 113.142 49.7585 113.142 48.4109H112.142ZM112.586 52.576L111.609 52.7893C111.936 54.2831 112.555 55.6755 113.459 56.9617L114.277 56.3866L115.095 55.8116C114.338 54.7345 113.831 53.5866 113.563 52.3627L112.586 52.576ZM114.277 56.3866L113.473 56.9814C114.408 58.2446 115.612 59.2084 117.068 59.8676L117.481 58.9566L117.893 58.0455C116.739 57.5232 115.807 56.7736 115.081 55.7918L114.277 56.3866ZM117.481 58.9566L117.103 59.8826C118.53 60.4637 120.022 60.7541 121.574 60.7541V59.7541V58.7541C120.278 58.7541 119.042 58.5129 117.858 58.0305L117.481 58.9566ZM121.574 59.7541V60.7541C122.697 60.7541 123.82 60.6609 124.941 60.4748L124.777 59.4883L124.614 58.5018C123.599 58.6701 122.586 58.7541 121.574 58.7541V59.7541ZM124.777 59.4883L124.993 60.4646C126.16 60.2065 127.24 59.7843 128.227 59.1946L127.714 58.3362L127.201 57.4778C126.408 57.9516 125.53 58.2975 124.561 58.5119L124.777 59.4883ZM127.714 58.3362L128.242 59.1852C129.329 58.5087 130.19 57.6195 130.809 56.5239L129.939 56.0321L129.068 55.5403C128.619 56.3353 127.997 56.9822 127.186 57.4872L127.714 58.3362ZM129.939 56.0321L130.786 56.5637C131.479 55.4582 131.828 54.2399 131.828 52.9305H130.828H129.828C129.828 53.8661 129.584 54.7156 129.092 55.5006L129.939 56.0321ZM130.828 52.9305V53.9305H138.837V52.9305V51.9305H130.828V52.9305ZM138.837 52.9305H137.837C137.837 54.2344 137.619 55.5114 137.181 56.7658L138.125 57.0956L139.069 57.4253C139.58 55.9621 139.837 54.4624 139.837 52.9305H138.837ZM138.125 57.0956L137.173 56.7912C136.791 57.9842 136.22 59.0976 135.453 60.1341L136.256 60.7289L137.06 61.3237C137.954 60.1153 138.628 58.8064 139.078 57.3999L138.125 57.0956ZM136.256 60.7289L135.432 60.1627C134.726 61.1902 133.856 62.0846 132.817 62.8471L133.409 63.6533L134.001 64.4596C135.216 63.5679 136.244 62.5126 137.081 61.2952L136.256 60.7289ZM133.409 63.6533L132.817 62.8471C131.767 63.6182 130.635 64.2228 129.42 64.6627L129.761 65.603L130.101 66.5432C131.497 66.0379 132.797 65.3427 134.001 64.4596L133.409 63.6533ZM129.761 65.603L129.42 64.6627C128.187 65.1091 126.896 65.4171 125.544 65.5854L125.667 66.5778L125.791 67.5701C127.286 67.3839 128.724 67.0421 130.101 66.5432L129.761 65.603ZM125.667 66.5778L125.538 65.5861C124.216 65.7578 122.895 65.8436 121.574 65.8436V66.8436V67.8436C122.982 67.8436 124.389 67.7522 125.796 67.5694L125.667 66.5778ZM112.142 40.7011V41.7011H121.218V40.7011V39.7011H112.142V40.7011ZM121.218 40.7011V41.7011C122.015 41.7011 122.811 41.6706 123.608 41.6096L123.532 40.6125L123.455 39.6154C122.709 39.6726 121.964 39.7011 121.218 39.7011V40.7011ZM123.532 40.6125L123.608 41.6096C124.458 41.5445 125.28 41.3813 126.071 41.1185L125.756 40.1694L125.441 39.2203C124.809 39.4302 124.148 39.5624 123.455 39.6154L123.532 40.6125ZM125.756 40.1694L126.071 41.1185C126.839 40.8638 127.575 40.5449 128.28 40.162L127.803 39.2832L127.326 38.4045C126.725 38.7305 126.098 39.0024 125.441 39.2203L125.756 40.1694ZM127.803 39.2832L128.28 40.162C129.03 39.7549 129.685 39.241 130.24 38.6198L129.494 37.9539L128.748 37.2881C128.353 37.7303 127.881 38.1026 127.326 38.4045L127.803 39.2832ZM129.494 37.9539L130.236 38.6244C130.856 37.9382 131.315 37.1697 131.599 36.3218L130.65 36.0043L129.702 35.6869C129.511 36.2569 129.199 36.7881 128.752 37.2835L129.494 37.9539ZM130.65 36.0043L131.599 36.3217C131.871 35.5077 132.006 34.6618 132.006 33.7889H131.006H130.006C130.006 34.452 129.904 35.0831 129.702 35.6869L130.65 36.0043ZM131.006 33.7889H132.006C132.006 32.5004 131.698 31.2761 131.089 30.1292L130.206 30.5986L129.323 31.068C129.781 31.9298 130.006 32.8323 130.006 33.7889H131.006ZM130.206 30.5986L131.119 30.1911C130.566 28.9534 129.724 27.9691 128.598 27.2683L128.07 28.1173L127.541 28.9663C128.314 29.447 128.895 30.1169 129.292 31.0061L130.206 30.5986ZM128.07 28.1173L128.635 27.2922C127.577 26.5678 126.416 26.0726 125.161 25.8093L124.955 26.788L124.75 27.7667C125.749 27.9761 126.665 28.367 127.505 28.9424L128.07 28.1173ZM124.955 26.788L125.171 25.8116C124.031 25.5591 122.861 25.4335 121.663 25.4335V26.4335V27.4335C122.72 27.4335 123.745 27.5442 124.739 27.7644L124.955 26.788ZM121.663 26.4335V25.4335C120.096 25.4335 118.568 25.7594 117.083 26.4021L117.481 27.3197L117.878 28.2374C119.123 27.6985 120.382 27.4335 121.663 27.4335V26.4335ZM117.481 27.3197L117.103 26.3936C115.63 26.9939 114.414 27.9348 113.473 29.2063L114.277 29.801L115.081 30.3958C115.801 29.4222 116.721 28.709 117.858 28.2458L117.481 27.3197ZM114.277 29.801L113.473 29.2063C112.554 30.449 111.933 31.8533 111.608 33.4069L112.586 33.6116L113.565 33.8164C113.834 32.5342 114.34 31.3981 115.081 30.3958L114.277 29.801ZM112.586 33.6116L111.609 33.3984C111.297 34.8286 111.142 36.2885 111.142 37.7767H112.142H113.142C113.142 36.4291 113.282 35.1123 113.563 33.8249L112.586 33.6116ZM112.142 37.7767H111.142V40.7011H112.142H113.142V37.7767H112.142ZM155.092 97.2989L156.092 97.2935L155.676 20.0476L154.676 20.053L153.676 20.0584L154.092 97.3042L155.092 97.2989ZM154.676 20.053V21.053H162.685V20.053V19.053H154.676V20.053ZM162.685 20.053H161.685V29.801H162.685H163.685V20.053H162.685ZM162.685 29.801L163.65 30.0652C163.989 28.8241 164.443 27.6098 165.011 26.4218L164.109 25.9904L163.207 25.5591C162.588 26.8524 162.093 28.1785 161.721 29.5369L162.685 29.801ZM164.109 25.9904L165.011 26.4218C165.565 25.2631 166.255 24.219 167.082 23.2861L166.333 22.6229L165.585 21.9598C164.632 23.0356 163.839 24.2365 163.207 25.5591L164.109 25.9904ZM166.333 22.6229L167.079 23.2888C167.936 22.3291 168.915 21.621 170.018 21.15L169.626 20.2302L169.233 19.3105C167.845 19.9029 166.629 20.7899 165.587 21.957L166.333 22.6229ZM169.626 20.2302L170.038 21.1412C171.215 20.6087 172.439 20.344 173.719 20.344V19.344V18.344C172.152 18.344 170.647 18.6702 169.213 19.3192L169.626 20.2302ZM173.719 19.344V20.344C174.694 20.344 175.672 20.4787 176.656 20.7509L176.923 19.7871L177.189 18.8233C176.038 18.5048 174.88 18.344 173.719 18.344V19.344ZM176.923 19.7871L176.669 20.7545C177.66 21.0143 178.502 21.4496 179.21 22.0542L179.859 21.2937L180.508 20.5331C179.556 19.7198 178.439 19.1508 177.176 18.8198L176.923 19.7871ZM179.859 21.2937L179.236 22.0758C180.03 22.7086 180.656 23.4386 181.124 24.2668L181.995 23.775L182.865 23.2832C182.265 22.2208 181.468 21.2966 180.482 20.5115L179.859 21.2937ZM181.995 23.775L181.148 24.3066C181.69 25.1711 182.096 26.087 182.366 27.0567L183.33 26.788L184.293 26.5193C183.97 25.3621 183.486 24.2694 182.842 23.2434L181.995 23.775ZM183.33 26.788L182.366 27.0567C182.648 28.0654 182.845 29.1036 182.958 30.172L183.952 30.0669L184.947 29.9618C184.823 28.7852 184.605 27.6375 184.293 26.5193L183.33 26.788ZM183.952 30.0669L182.959 30.1778C183.073 31.2026 183.13 32.2585 183.13 33.3458H184.13H185.13C185.13 32.188 185.069 31.058 184.946 29.956L183.952 30.0669ZM184.13 33.3458V32.3458H176.122V33.3458V34.3458H184.13V33.3458ZM176.122 33.3458H177.122C177.122 32.4708 177.059 31.6221 176.932 30.8004L175.944 30.9531L174.956 31.1058C175.066 31.8201 175.122 32.5665 175.122 33.3458H176.122ZM175.944 30.9531L176.934 30.8111C176.797 29.858 176.488 28.9662 176.006 28.1436L175.143 28.649L174.28 29.1544C174.629 29.7497 174.853 30.394 174.954 31.0951L175.944 30.9531ZM175.143 28.649L176.037 28.2003C175.571 27.2737 174.832 26.5874 173.87 26.1452L173.452 27.0539L173.035 27.9625C173.615 28.2292 174.003 28.6063 174.249 29.0977L175.143 28.649ZM173.452 27.0539L173.955 26.1892C173.089 25.6862 172.144 25.4335 171.139 25.4335V26.4335V27.4335C171.794 27.4335 172.392 27.5944 172.95 27.9185L173.452 27.0539ZM171.139 26.4335V25.4335C169.897 25.4335 168.7 25.7443 167.558 26.3465L168.024 27.2311L168.491 28.1157C169.365 27.6545 170.244 27.4335 171.139 27.4335V26.4335ZM168.024 27.2311L167.535 26.3587C166.461 26.9608 165.552 27.7655 164.816 28.765L165.622 29.3579L166.427 29.9509C166.996 29.178 167.689 28.5649 168.513 28.1035L168.024 27.2311ZM165.622 29.3579L164.836 28.7386C164.108 29.6619 163.551 30.7107 163.161 31.8763L164.109 32.1937L165.057 32.5111C165.379 31.55 165.83 30.7083 166.407 29.9773L165.622 29.3579ZM164.109 32.1937L163.166 31.8597C162.797 32.9029 162.489 33.9757 162.243 35.0776L163.219 35.2954L164.195 35.5132C164.424 34.4883 164.709 33.4932 165.051 32.5278L164.109 32.1937ZM163.219 35.2954L162.243 35.0776C161.994 36.1931 161.838 37.3107 161.776 38.43L162.774 38.4857L163.772 38.5414C163.829 37.5337 163.969 36.5245 164.195 35.5132L163.219 35.2954ZM162.774 38.4857L161.776 38.43C161.715 39.5119 161.685 40.5939 161.685 41.6759H162.685H163.685C163.685 40.6311 163.714 39.5863 163.772 38.5414L162.774 38.4857ZM162.685 41.6759L161.685 41.6834L162.1 97.3063L163.1 97.2989L164.1 97.2914L163.685 41.6685L162.685 41.6759ZM163.1 97.2989V96.2989H155.092V97.2989V98.2989H163.1V97.2989ZM210.559 66.8436V65.8436C209.019 65.8436 207.478 65.7017 205.935 65.4171L205.754 66.4005L205.572 67.3839C207.233 67.6902 208.895 67.8436 210.559 67.8436V66.8436ZM205.754 66.4005L205.935 65.4171C204.435 65.1405 203.022 64.6434 201.69 63.9253L201.216 64.8054L200.741 65.6855C202.257 66.5034 203.869 67.0697 205.572 67.3839L205.754 66.4005ZM201.216 64.8054L201.734 63.9502C200.447 63.1699 199.269 62.2214 198.202 61.1021L197.478 61.7924L196.755 62.4826C197.941 63.7264 199.256 64.7867 200.697 65.6605L201.216 64.8054ZM197.478 61.7924L198.236 61.14C197.22 59.9594 196.376 58.6982 195.702 57.3558L194.809 57.8045L193.915 58.2532C194.665 59.7466 195.601 61.1439 196.72 62.4447L197.478 61.7924ZM194.809 57.8045L195.723 57.4004C195.107 56.0052 194.687 54.5556 194.463 53.0492L193.474 53.1964L192.485 53.3435C192.735 55.0273 193.205 56.6498 193.894 58.2086L194.809 57.8045ZM193.474 53.1964L194.463 53.0492C194.233 51.5022 194.118 49.9563 194.118 48.4109H193.118H192.118C192.118 50.0559 192.24 51.7002 192.485 53.3435L193.474 53.1964ZM193.118 48.4109H194.118V37.7767H193.118H192.118V48.4109H193.118ZM193.118 37.7767H194.118C194.118 36.2314 194.233 34.6854 194.463 33.1385L193.474 32.9913L192.485 32.8442C192.24 34.4875 192.118 36.1318 192.118 37.7767H193.118ZM193.474 32.9913L194.457 33.1741C194.739 31.657 195.189 30.2298 195.806 28.8898L194.898 28.4718L193.989 28.0537C193.301 29.5495 192.802 31.1354 192.491 32.8085L193.474 32.9913ZM194.898 28.4718L195.812 28.8759C196.422 27.495 197.225 26.2559 198.22 25.1544L197.478 24.4839L196.736 23.8134C195.596 25.0751 194.678 26.4946 193.983 28.0676L194.898 28.4718ZM197.478 24.4839L198.218 25.1564C199.272 23.9964 200.459 23.0634 201.779 22.351L201.305 21.4709L200.83 20.5908C199.303 21.4145 197.938 22.4902 196.738 23.8115L197.478 24.4839ZM201.305 21.4709L201.807 22.3356C203.138 21.5623 204.515 21.0425 205.942 20.7693L205.754 19.7871L205.566 18.805C203.907 19.1226 202.319 19.7253 200.802 20.6062L201.305 21.4709ZM205.754 19.7871L205.935 20.7706C207.476 20.4864 209.047 20.344 210.648 20.344V19.344V18.344C208.927 18.344 207.235 18.4971 205.572 18.8037L205.754 19.7871ZM210.648 19.344V20.344C212.03 20.344 213.413 20.4301 214.796 20.6022L214.919 19.6099L215.043 18.6176C213.578 18.4353 212.113 18.344 210.648 18.344V19.344ZM214.919 19.6099L214.796 20.6022C216.134 20.7688 217.413 21.1014 218.635 21.5994L219.013 20.6733L219.39 19.7472C218.002 19.1818 216.552 18.8054 215.043 18.6176L214.919 19.6099ZM219.013 20.6733L218.685 21.6182C219.945 22.0547 221.093 22.6807 222.132 23.4977L222.75 22.7116L223.368 21.9254C222.153 20.97 220.809 20.2372 219.34 19.7284L219.013 20.6733ZM222.75 22.7116L222.178 23.5319C223.262 24.2875 224.15 25.1997 224.849 26.2712L225.686 25.7246L226.524 25.178C225.681 23.8863 224.611 22.7898 223.322 21.8912L222.75 22.7116ZM225.686 25.7246L224.868 26.2996C225.627 27.3797 226.17 28.5668 226.496 29.8673L227.466 29.6238L228.436 29.3803C228.051 27.845 227.406 26.4326 226.505 25.1495L225.686 25.7246ZM227.466 29.6238L226.499 29.8772C226.833 31.1525 227 32.4557 227 33.7889H228H229C229 32.2863 228.811 30.8127 228.433 29.3704L227.466 29.6238ZM228 33.7889H227C227 35.1222 226.833 36.4583 226.496 37.7991L227.466 38.0426L228.436 38.286C228.811 36.791 229 35.2914 229 33.7889H228ZM227.466 38.0426L226.496 37.7991C226.174 39.0822 225.614 40.223 224.814 41.2319L225.597 41.8532L226.381 42.4744C227.361 41.2383 228.046 39.8387 228.436 38.286L227.466 38.0426ZM225.597 41.8532L224.794 41.2584C224.037 42.2811 223.086 43.1771 221.93 43.9445L222.483 44.7776L223.036 45.6107C224.372 44.7239 225.497 43.6703 226.401 42.448L225.597 41.8532ZM222.483 44.7776L221.94 43.9381C220.822 44.6615 219.619 45.2468 218.329 45.6937L218.657 46.6386L218.984 47.5835C220.423 47.0851 221.771 46.4297 223.026 45.6171L222.483 44.7776ZM218.657 46.6386L218.367 45.6816C217.057 46.0785 215.718 46.3622 214.351 46.5324L214.474 47.5248L214.598 48.5171C216.078 48.3329 217.527 48.0257 218.947 47.5956L218.657 46.6386ZM214.474 47.5248L214.345 46.5331C213.027 46.7044 211.646 46.7906 210.203 46.7906V47.7906V48.7906C211.726 48.7906 213.193 48.6996 214.603 48.5164L214.474 47.5248ZM210.203 47.7906V46.7906H201.127V47.7906V48.7906H210.203V47.7906ZM201.127 47.7906H200.127V48.4109H201.127H202.127V47.7906H201.127ZM201.127 48.4109H200.127C200.127 49.8992 200.282 51.3591 200.594 52.7893L201.571 52.576L202.548 52.3627C202.267 51.0753 202.127 49.7585 202.127 48.4109H201.127ZM201.571 52.576L200.594 52.7893C200.921 54.2831 201.54 55.6755 202.444 56.9617L203.262 56.3866L204.08 55.8116C203.323 54.7346 202.816 53.5866 202.548 52.3627L201.571 52.576ZM203.262 56.3866L202.458 56.9814C203.393 58.2446 204.597 59.2084 206.053 59.8676L206.466 58.9566L206.878 58.0455C205.724 57.5232 204.792 56.7736 204.066 55.7918L203.262 56.3866ZM206.466 58.9566L206.088 59.8826C207.515 60.4637 209.007 60.7541 210.559 60.7541V59.7541V58.7541C209.263 58.7541 208.027 58.5129 206.843 58.0305L206.466 58.9566ZM210.559 59.7541V60.7541C211.682 60.7541 212.805 60.6609 213.926 60.4748L213.762 59.4883L213.599 58.5018C212.584 58.6701 211.571 58.7541 210.559 58.7541V59.7541ZM213.762 59.4883L213.978 60.4646C215.145 60.2065 216.225 59.7843 217.212 59.1946L216.699 58.3362L216.186 57.4778C215.393 57.9516 214.515 58.2975 213.546 58.5119L213.762 59.4883ZM216.699 58.3362L217.227 59.1852C218.314 58.5087 219.175 57.6195 219.794 56.5239L218.924 56.0321L218.053 55.5403C217.604 56.3353 216.982 56.9822 216.17 57.4872L216.699 58.3362ZM218.924 56.0321L219.771 56.5637C220.464 55.4582 220.813 54.2399 220.813 52.9305H219.813H218.813C218.813 53.8661 218.569 54.7156 218.077 55.5006L218.924 56.0321ZM219.813 52.9305V53.9305H227.822V52.9305V51.9305H219.813V52.9305ZM227.822 52.9305H226.822C226.822 54.2344 226.604 55.5114 226.166 56.7658L227.11 57.0956L228.054 57.4253C228.565 55.9621 228.822 54.4624 228.822 52.9305H227.822ZM227.11 57.0956L226.158 56.7912C225.776 57.9842 225.205 59.0976 224.438 60.1341L225.241 60.7289L226.045 61.3237C226.939 60.1153 227.613 58.8064 228.063 57.3999L227.11 57.0956ZM225.241 60.7289L224.417 60.1627C223.711 61.1902 222.841 62.0846 221.802 62.8471L222.394 63.6533L222.986 64.4596C224.201 63.5679 225.229 62.5126 226.066 61.2952L225.241 60.7289ZM222.394 63.6533L221.802 62.8471C220.752 63.6182 219.62 64.2228 218.405 64.6627L218.746 65.603L219.086 66.5432C220.482 66.0379 221.782 65.3427 222.986 64.4596L222.394 63.6533ZM218.746 65.603L218.405 64.6627C217.172 65.1091 215.881 65.4171 214.529 65.5854L214.652 66.5778L214.776 67.5701C216.271 67.3839 217.708 67.0421 219.086 66.5432L218.746 65.603ZM214.652 66.5778L214.523 65.5861C213.201 65.7578 211.88 65.8436 210.559 65.8436V66.8436V67.8436C211.967 67.8436 213.374 67.7522 214.781 67.5694L214.652 66.5778ZM201.127 40.7011V41.7011H210.203V40.7011V39.7011H201.127V40.7011ZM210.203 40.7011V41.7011C211 41.7011 211.796 41.6706 212.593 41.6096L212.517 40.6125L212.44 39.6154C211.694 39.6726 210.949 39.7011 210.203 39.7011V40.7011ZM212.517 40.6125L212.593 41.6096C213.443 41.5445 214.265 41.3813 215.056 41.1185L214.741 40.1694L214.426 39.2203C213.794 39.4302 213.133 39.5624 212.44 39.6154L212.517 40.6125ZM214.741 40.1694L215.056 41.1185C215.824 40.8638 216.56 40.5449 217.265 40.162L216.788 39.2832L216.311 38.4045C215.71 38.7305 215.083 39.0024 214.426 39.2203L214.741 40.1694ZM216.788 39.2832L217.265 40.162C218.015 39.7549 218.67 39.241 219.225 38.6198L218.479 37.9539L217.733 37.2881C217.338 37.7303 216.866 38.1026 216.311 38.4045L216.788 39.2832ZM218.479 37.9539L219.221 38.6244C219.841 37.9382 220.3 37.1697 220.584 36.3218L219.635 36.0043L218.687 35.6869C218.496 36.2568 218.184 36.7881 217.737 37.2835L218.479 37.9539ZM219.635 36.0043L220.584 36.3217C220.856 35.5077 220.991 34.6618 220.991 33.7889H219.991H218.991C218.991 34.452 218.889 35.0831 218.687 35.6869L219.635 36.0043ZM219.991 33.7889H220.991C220.991 32.5004 220.683 31.2761 220.073 30.1292L219.19 30.5986L218.308 31.068C218.766 31.9298 218.991 32.8323 218.991 33.7889H219.991ZM219.19 30.5986L220.104 30.1911C219.551 28.9534 218.709 27.9691 217.583 27.2683L217.055 28.1173L216.526 28.9663C217.299 29.447 217.88 30.1169 218.277 31.0061L219.19 30.5986ZM217.055 28.1173L217.62 27.2922C216.562 26.5678 215.401 26.0726 214.146 25.8093L213.94 26.788L213.735 27.7667C214.734 27.9761 215.65 28.367 216.49 28.9424L217.055 28.1173ZM213.94 26.788L214.156 25.8116C213.016 25.5591 211.846 25.4335 210.648 25.4335V26.4335V27.4335C211.705 27.4335 212.73 27.5442 213.724 27.7644L213.94 26.788ZM210.648 26.4335V25.4335C209.081 25.4335 207.552 25.7594 206.068 26.4021L206.466 27.3197L206.863 28.2374C208.108 27.6985 209.367 27.4335 210.648 27.4335V26.4335ZM206.466 27.3197L206.088 26.3936C204.615 26.9939 203.399 27.9348 202.458 29.2063L203.262 29.801L204.066 30.3958C204.786 29.4222 205.706 28.709 206.843 28.2458L206.466 27.3197ZM203.262 29.801L202.458 29.2063C201.539 30.449 200.918 31.8533 200.593 33.4069L201.571 33.6116L202.55 33.8164C202.819 32.5342 203.325 31.3981 204.066 30.3958L203.262 29.801ZM201.571 33.6116L200.594 33.3984C200.282 34.8286 200.127 36.2885 200.127 37.7767H201.127H202.127C202.127 36.4291 202.267 35.1123 202.548 33.8249L201.571 33.6116ZM201.127 37.7767H200.127V40.7011H201.127H202.127V37.7767H201.127ZM122.079 136.291V135.291H115.138V136.291V137.291H122.079V136.291ZM115.138 136.291L116.049 135.878C115.224 134.058 114.428 132.209 113.661 130.33L112.735 130.708L111.81 131.086C112.586 132.988 113.391 134.861 114.227 136.704L115.138 136.291ZM112.735 130.708L113.671 130.356C112.958 128.462 112.245 126.598 111.532 124.763L110.6 125.125L109.668 125.487C110.378 127.315 111.089 129.173 111.8 131.06L112.735 130.708ZM110.6 125.125L111.536 124.773C110.827 122.891 110.148 121.009 109.498 119.127L108.553 119.454L107.608 119.78C108.264 121.679 108.949 123.578 109.664 125.478L110.6 125.125ZM108.553 119.454L109.51 119.162C108.919 117.222 108.358 115.281 107.827 113.341L106.862 113.605L105.898 113.869C106.434 115.828 107.001 117.786 107.596 119.745L108.553 119.454ZM106.862 113.605L107.827 113.341C107.298 111.409 106.828 109.478 106.417 107.548L105.439 107.756L104.461 107.964C104.88 109.933 105.359 111.901 105.898 113.869L106.862 113.605ZM105.439 107.756L106.418 107.553C106.016 105.61 105.816 103.669 105.816 101.73H104.816H103.816C103.816 103.808 104.031 105.884 104.459 107.958L105.439 107.756ZM104.816 101.73H105.816V90.2094H104.816H103.816V101.73H104.816ZM104.816 90.2094V91.2094H112.735V90.2094V89.2094H104.816V90.2094ZM112.735 90.2094H111.735V101.73H112.735H113.735V90.2094H112.735ZM112.735 101.73H111.735C111.735 104.267 111.948 106.776 112.373 109.254L113.358 109.085L114.344 108.916C113.938 106.55 113.735 104.155 113.735 101.73H112.735ZM113.358 109.085L112.373 109.254C112.791 111.692 113.268 114.13 113.806 116.567L114.782 116.352L115.759 116.137C115.228 113.73 114.757 111.323 114.344 108.916L113.358 109.085ZM114.782 116.352L113.812 116.595C114.405 118.957 114.998 121.347 115.591 123.768L116.562 123.53L117.533 123.292C116.939 120.868 116.346 118.473 115.752 116.108L114.782 116.352ZM116.562 123.53L115.598 123.796C116.253 126.167 116.937 128.537 117.651 130.908L118.608 130.619L119.566 130.331C118.856 127.975 118.176 125.619 117.526 123.264L116.562 123.53ZM118.608 130.619L119.563 130.917L126.415 108.94L125.46 108.642L124.506 108.344L117.654 130.322L118.608 130.619ZM125.46 108.642H126.46V97.2989H125.46H124.46V108.642H125.46ZM125.46 97.2989V98.2989H132.49V97.2989V96.2989H125.46V97.2989ZM132.49 97.2989H131.49V108.642H132.49H133.49V97.2989H132.49ZM132.49 108.642L131.534 108.936L138.297 130.914L139.253 130.619L140.209 130.325L133.446 108.348L132.49 108.642ZM139.253 130.619L140.211 130.908C140.925 128.537 141.609 126.167 142.264 123.796L141.3 123.53L140.336 123.264C139.685 125.619 139.005 127.975 138.296 130.331L139.253 130.619ZM141.3 123.53L142.265 123.79C142.921 121.355 143.518 118.949 144.055 116.572L143.079 116.352L142.104 116.131C141.573 118.481 140.983 120.86 140.334 123.27L141.3 123.53ZM143.079 116.352L144.056 116.567C144.593 114.13 145.071 111.692 145.489 109.254L144.503 109.085L143.518 108.916C143.105 111.323 142.633 113.73 142.103 116.137L143.079 116.352ZM144.503 109.085L145.489 109.254C145.914 106.776 146.126 104.267 146.126 101.73H145.126H144.126C144.126 104.155 143.923 106.55 143.518 108.916L144.503 109.085ZM145.126 101.73H146.126V90.2094H145.126H144.126V101.73H145.126ZM145.126 90.2094V91.2094H155.054V90.2094V89.2094H145.126V90.2094ZM154.225 97.2989H153.225C153.225 98.1961 152.921 100.212 152.54 102.352C152.166 104.451 151.739 106.553 151.532 107.553L152.512 107.756L153.491 107.958C153.699 106.95 154.13 104.828 154.509 102.703C154.88 100.619 155.225 98.4104 155.225 97.2989H154.225ZM152.512 107.756L151.534 107.548C151.122 109.478 150.652 111.409 150.124 113.341L151.088 113.605L152.052 113.869C152.591 111.901 153.071 109.933 153.49 107.964L152.512 107.756ZM151.088 113.605L150.124 113.341C149.595 115.272 149.007 117.204 148.36 119.136L149.308 119.454L150.257 119.771C150.915 117.804 151.514 115.837 152.052 113.869L151.088 113.605ZM149.308 119.454L148.363 119.127C147.714 121.009 147.034 122.891 146.326 124.773L147.262 125.125L148.198 125.477C148.913 123.578 149.598 121.679 150.254 119.78L149.308 119.454ZM147.262 125.125L146.32 124.789C145.672 126.606 144.966 128.453 144.2 130.33L145.126 130.708L146.052 131.086C146.829 129.182 147.546 127.307 148.204 125.461L147.262 125.125ZM145.126 130.708L144.2 130.33C143.43 132.218 142.661 134.075 141.891 135.903L142.812 136.291L143.734 136.679C144.507 134.844 145.279 132.98 146.052 131.086L145.126 130.708ZM142.812 136.291V135.291H135.783V136.291V137.291H142.812V136.291ZM135.783 136.291L136.737 135.993L129.885 114.016L128.931 114.314L127.976 114.611L134.828 136.589L135.783 136.291ZM128.931 114.314L127.976 114.016L121.124 135.993L122.079 136.291L123.034 136.589L129.885 114.611L128.931 114.314ZM185.702 136.291V135.291H181.965V136.291V137.291H185.702V136.291ZM181.965 136.291V135.291C180.891 135.291 179.815 135.207 178.739 135.037L178.584 136.025L178.428 137.013C179.606 137.198 180.785 137.291 181.965 137.291V136.291ZM178.584 136.025L178.747 135.039C177.772 134.877 176.822 134.58 175.894 134.145L175.469 135.05L175.045 135.956C176.134 136.466 177.259 136.819 178.42 137.012L178.584 136.025ZM175.469 135.05L175.936 134.166C175.004 133.674 174.156 133.075 173.39 132.367L172.711 133.101L172.032 133.835C172.927 134.663 173.918 135.363 175.003 135.935L175.469 135.05ZM172.711 133.101L173.442 132.419C172.731 131.656 172.129 130.812 171.636 129.884L170.753 130.354L169.87 130.823C170.445 131.904 171.148 132.891 171.979 133.783L172.711 133.101ZM170.753 130.354L171.657 129.926C171.224 129.01 170.925 128.038 170.762 127.007L169.774 127.163L168.786 127.32C168.979 128.534 169.333 129.689 169.849 130.781L170.753 130.354ZM169.774 127.163L170.762 127.007C170.592 125.933 170.507 124.892 170.507 123.884H169.507H168.507C168.507 125.004 168.601 126.149 168.786 127.32L169.774 127.163ZM169.507 123.884H170.507V97.2989H169.507H168.507V123.884H169.507ZM169.507 97.2989V96.2989H163.1V97.2989V98.2989H169.507V97.2989ZM155.054 90.2094V91.2094H177.516V90.2094V89.2094H155.054V90.2094ZM177.516 90.2094H176.516V123.884H177.516H178.516V90.2094H177.516ZM177.516 123.884H176.516C176.516 124.596 176.581 125.306 176.71 126.014L177.694 125.834L178.678 125.654C178.57 125.063 178.516 124.473 178.516 123.884H177.516ZM177.694 125.834L176.71 126.014C176.858 126.826 177.194 127.566 177.707 128.222L178.495 127.606L179.283 126.991C178.965 126.584 178.767 126.142 178.678 125.654L177.694 125.834ZM178.495 127.606L177.707 128.222C178.212 128.869 178.832 129.379 179.562 129.742L180.007 128.847L180.453 127.952C179.996 127.724 179.608 127.407 179.283 126.991L178.495 127.606ZM180.007 128.847L179.667 129.787C180.422 130.061 181.189 130.202 181.965 130.202V129.202V128.202C181.436 128.202 180.898 128.106 180.348 127.907L180.007 128.847ZM181.965 129.202V130.202H185.702V129.202V128.202H181.965V129.202ZM185.702 129.202H184.702V136.291H185.702H186.702V129.202H185.702ZM193.801 136.291H194.801V90.2094H193.801H192.801V136.291H193.801ZM193.801 90.2094V91.2094H201.809V90.2094V89.2094H193.801V90.2094ZM201.809 90.2094H200.809V98.4509H201.809H202.809V90.2094H201.809ZM201.809 98.4509L202.758 98.7683C203.147 97.6055 203.675 96.4971 204.345 95.4417L203.5 94.9062L202.656 94.3706C201.901 95.5603 201.303 96.815 200.861 98.1335L201.809 98.4509ZM203.5 94.9062L204.338 95.4527C205.051 94.3602 205.895 93.4396 206.871 92.6837L206.259 91.8931L205.646 91.1026C204.487 92.0009 203.492 93.0889 202.663 94.3596L203.5 94.9062ZM206.259 91.8931L206.871 92.6837C207.835 91.9374 208.902 91.4058 210.08 91.0858L209.818 90.1208L209.556 89.1557C208.124 89.5447 206.818 90.1947 205.646 91.1026L206.259 91.8931ZM209.818 90.1208L210.12 91.074C211.328 90.6913 212.561 90.5004 213.822 90.5004V89.5004V88.5004C212.355 88.5004 210.919 88.7231 209.516 89.1675L209.818 90.1208ZM213.822 89.5004V90.5004C215.133 90.5004 216.417 90.7176 217.677 91.1543L218.005 90.2094L218.332 89.2645C216.864 88.7559 215.359 88.5004 213.822 88.5004V89.5004ZM218.005 90.2094L217.726 91.1697C219.013 91.5437 220.127 92.1531 221.079 92.9964L221.742 92.2476L222.405 91.4988C221.222 90.4516 219.844 89.7022 218.284 89.2491L218.005 90.2094ZM221.742 92.2476L221.1 93.0138C222.139 93.8857 222.982 94.8885 223.633 96.0242L224.501 95.5265L225.368 95.0288C224.596 93.6832 223.599 92.5001 222.385 91.4814L221.742 92.2476ZM224.501 95.5265L223.633 96.0242C224.305 97.1943 224.838 98.4506 225.232 99.7954L226.191 99.5143L227.151 99.2333C226.714 97.7423 226.12 96.34 225.368 95.0288L224.501 95.5265ZM226.191 99.5143L225.235 99.8066C225.629 101.097 225.883 102.416 225.996 103.763L226.992 103.679L227.989 103.596C227.864 102.107 227.584 100.649 227.148 99.2221L226.191 99.5143ZM226.992 103.679L226 103.804C226.173 105.181 226.259 106.557 226.259 107.933H227.259H228.259C228.259 106.473 228.168 105.014 227.984 103.555L226.992 103.679ZM227.259 107.933H226.259V136.291H227.259H228.259V107.933H227.259ZM227.259 136.291V135.291H219.251V136.291V137.291H227.259V136.291ZM219.251 136.291H220.251V107.933H219.251H218.251V136.291H219.251ZM219.251 107.933H220.251C220.251 107.002 220.188 106.072 220.064 105.142L219.073 105.275L218.081 105.407C218.194 106.25 218.251 107.092 218.251 107.933H219.251ZM219.073 105.275L220.071 105.212C220.006 104.18 219.811 103.201 219.48 102.278L218.539 102.616L217.597 102.954C217.86 103.686 218.021 104.478 218.075 105.337L219.073 105.275ZM218.539 102.616L219.487 102.299C219.167 101.342 218.749 100.445 218.233 99.609L217.382 100.135L216.531 100.66C216.964 101.361 217.317 102.118 217.59 102.933L218.539 102.616ZM217.382 100.135L218.233 99.609C217.693 98.7359 217.015 97.992 216.201 97.3839L215.602 98.185L215.004 98.9862C215.613 99.4415 216.122 99.9974 216.531 100.66L217.382 100.135ZM215.602 98.185L216.241 97.4155C215.418 96.7326 214.487 96.2516 213.456 95.9779L213.2 96.9444L212.943 97.9109C213.692 98.1098 214.363 98.4559 214.964 98.9546L215.602 98.185ZM213.2 96.9444L213.456 95.9779C212.486 95.7201 211.509 95.5899 210.53 95.5899V96.5899V97.5899C211.33 97.5899 212.134 97.696 212.943 97.9109L213.2 96.9444ZM210.53 96.5899V95.5899C209.551 95.5899 208.574 95.7201 207.604 95.9779L207.86 96.9444L208.117 97.9109C208.926 97.696 209.73 97.5899 210.53 97.5899V96.5899ZM207.86 96.9444L207.604 95.9779C206.573 96.2516 205.642 96.7326 204.819 97.4155L205.458 98.185L206.096 98.9546C206.697 98.4559 207.368 98.1098 208.117 97.9109L207.86 96.9444ZM205.458 98.185L204.859 97.3839C204.045 97.992 203.367 98.7359 202.827 99.609L203.678 100.135L204.529 100.66C204.938 99.9974 205.447 99.4415 206.056 98.9862L205.458 98.185ZM203.678 100.135L202.827 99.609C202.311 100.445 201.893 101.342 201.573 102.299L202.521 102.616L203.47 102.933C203.743 102.118 204.096 101.361 204.529 100.66L203.678 100.135ZM202.521 102.616L201.58 102.278C201.257 103.18 201.033 104.138 200.906 105.15L201.898 105.275L202.891 105.399C203.001 104.52 203.193 103.706 203.463 102.954L202.521 102.616ZM201.898 105.275L200.901 105.208C200.84 106.116 200.809 107.025 200.809 107.933H201.809H202.809C202.809 107.069 202.838 106.205 202.896 105.341L201.898 105.275ZM201.809 107.933H200.809V136.291H201.809H202.809V107.933H201.809ZM201.809 136.291V135.291H193.801V136.291V137.291H201.809V136.291ZM28.5557 136.291H29.5557V78.2459H28.5557H27.5557V136.291H28.5557ZM28.5557 78.2459V77.2459H15.2969V78.2459V79.2459H28.5557V78.2459ZM15.2969 78.2459H16.2969V71.1564H15.2969H14.2969V78.2459H15.2969ZM15.2969 71.1564V72.1564H60.3233V71.1564V70.1564H15.2969V71.1564ZM60.3233 71.1564H59.3233V78.2459H60.3233H61.3233V71.1564H60.3233ZM60.3233 78.2459V77.2459H36.5643V78.2459V79.2459H60.3233V78.2459ZM36.5643 78.2459H35.5643V136.291H36.5643H37.5643V78.2459H36.5643ZM36.5643 136.291V135.291H28.5557V136.291V137.291H36.5643V136.291ZM77.0525 137V136C75.5872 136 74.0876 135.832 72.5524 135.492L72.3363 136.468L72.1202 137.445C73.7884 137.814 75.433 138 77.0525 138V137ZM72.3363 136.468L72.5244 135.486C71.0878 135.211 69.7365 134.717 68.4666 134.002L67.976 134.873L67.4855 135.745C68.9444 136.566 70.5 137.135 72.1482 137.45L72.3363 136.468ZM67.976 134.873L68.4832 134.011C67.27 133.297 66.1618 132.388 65.1586 131.278L64.4166 131.949L63.6747 132.619C64.8071 133.872 66.0718 134.913 67.4689 135.735L67.976 134.873ZM64.4166 131.949L65.1926 131.318C64.2357 130.141 63.4501 128.883 62.8335 127.543L61.9251 127.961L61.0166 128.379C61.7051 129.875 62.5806 131.275 63.6407 132.579L64.4166 131.949ZM61.9251 127.961L62.8476 127.575C62.286 126.233 61.8926 124.834 61.6675 123.377L60.6793 123.53L59.691 123.683C59.9405 125.298 60.3777 126.853 61.0025 128.347L61.9251 127.961ZM60.6793 123.53L61.6675 123.377C61.438 121.891 61.3233 120.406 61.3233 118.922H60.3233H59.3233C59.3233 120.51 59.446 122.097 59.691 123.683L60.6793 123.53ZM60.3233 118.922H61.3233V71.1564H60.3233H59.3233V118.922H60.3233ZM60.3233 71.1564V72.1564H68.332V71.1564V70.1564H60.3233V71.1564ZM68.332 71.1564H67.332V118.922H68.332H69.332V71.1564H68.332ZM68.332 118.922H67.332C67.332 119.83 67.3624 120.739 67.4232 121.647L68.421 121.58L69.4187 121.514C69.3609 120.65 69.332 119.786 69.332 118.922H68.332ZM68.421 121.58L67.4311 121.722C67.5592 122.616 67.782 123.531 68.0956 124.468L69.0439 124.15L69.9921 123.833C69.7124 122.997 69.52 122.199 69.4108 121.438L68.421 121.58ZM69.0439 124.15L68.1026 124.488C68.4234 125.382 68.8397 126.243 69.35 127.069L70.2007 126.543L71.0513 126.017C70.6124 125.307 70.2576 124.572 69.9852 123.813L69.0439 124.15ZM70.2007 126.543L69.4018 127.145C69.9928 127.929 70.6832 128.617 71.4709 129.205L72.0693 128.404L72.6678 127.603C72.0317 127.128 71.4763 126.575 70.9995 125.941L70.2007 126.543ZM72.0693 128.404L71.4709 129.205C72.2775 129.808 73.1582 130.247 74.1093 130.518L74.383 129.556L74.6566 128.594C73.9466 128.392 73.285 128.064 72.6678 127.603L72.0693 128.404ZM74.383 129.556L74.1263 130.523C75.097 130.78 76.073 130.911 77.0525 130.911V129.911V128.91C76.2523 128.91 75.4486 128.804 74.6396 128.59L74.383 129.556ZM77.0525 129.911V130.911C78.0321 130.911 78.9845 130.78 79.9067 130.518L79.6331 129.556L79.3594 128.594C78.6206 128.804 77.8526 128.91 77.0525 128.91V129.911ZM79.6331 129.556L79.8897 130.523C80.8985 130.255 81.8162 129.816 82.6341 129.205L82.0357 128.404L81.4373 127.603C80.8314 128.055 80.1474 128.385 79.3764 128.59L79.6331 129.556ZM82.0357 128.404L82.6341 129.205C83.433 128.608 84.1061 127.906 84.6464 127.099L83.8154 126.543L82.9844 125.987C82.5755 126.598 82.0621 127.136 81.4372 127.603L82.0357 128.404ZM83.8154 126.543L84.6365 127.114C85.2173 126.278 85.6743 125.403 86.0025 124.488L85.0612 124.15L84.1199 123.813C83.8547 124.552 83.4813 125.272 82.9943 125.972L83.8154 126.543ZM85.0612 124.15L86.0094 124.468C86.3294 123.512 86.5265 122.573 86.5925 121.652L85.5951 121.58L84.5976 121.509C84.545 122.242 84.3862 123.016 84.1129 123.833L85.0612 124.15ZM85.5951 121.58L86.5862 121.713C86.7107 120.783 86.773 119.853 86.773 118.922H85.773H84.773C84.773 119.763 84.7167 120.605 84.6039 121.448L85.5951 121.58ZM85.773 118.922H86.773V71.1564H85.773H84.773V118.922H85.773ZM85.773 71.1564V72.1564H93.7817V71.1564V70.1564H85.773V71.1564ZM93.7817 118.922H92.7817C92.7817 120.406 92.6671 121.891 92.4375 123.377L93.4257 123.53L94.414 123.683C94.659 122.097 94.7817 120.51 94.7817 118.922H93.7817ZM93.4257 123.53L92.4375 123.377C92.2144 124.821 91.7965 126.209 91.1826 127.543L92.091 127.961L92.9994 128.379C93.6906 126.877 94.1625 125.311 94.414 123.683L93.4257 123.53ZM92.091 127.961L91.1685 127.575C90.6183 128.89 89.8452 130.13 88.8415 131.296L89.5994 131.949L90.3573 132.601C91.4892 131.286 92.3772 129.868 93.0135 128.347L92.091 127.961ZM89.5994 131.949L88.8388 131.3C87.9072 132.391 86.8123 133.291 85.5495 134.002L86.04 134.873L86.5305 135.745C87.9965 134.919 89.2746 133.87 90.36 132.598L89.5994 131.949ZM86.04 134.873L85.5328 134.011C84.3357 134.716 82.9939 135.209 81.4984 135.485L81.6797 136.468L81.8611 137.452C83.569 137.137 85.134 136.567 86.5472 135.735L86.04 134.873ZM81.6797 136.468L81.4557 135.494C79.9849 135.832 78.5176 136 77.0525 136V137V138C78.6722 138 80.2898 137.814 81.9037 137.443L81.6797 136.468ZM163.1 97.2989V96.2989H154.225V97.2989V98.2989H163.1V97.2989ZM93.7817 71.1564H92.7817V95.0391H93.7817H94.7817V71.1564H93.7817ZM93.7817 95.0391H92.7817V118.922H93.7817H94.7817V95.0391H93.7817Z" fill="black" mask="url(#path-1-outside-1_249_146)"/>
</svg>
