<svg width="22" height="18" viewBox="0 0 22 18" fill="none" xmlns="http://www.w3.org/2000/svg">
<path d="M20.8701 15.8955C20.931 15.8966 20.9837 15.8985 21.0264 15.9014C21.068 15.9826 21.1188 16.0515 21.1699 16.1104C21.211 16.1576 21.2541 16.2015 21.293 16.2402C21.3336 16.2807 21.3685 16.3146 21.4023 16.3506C21.4691 16.4214 21.5142 16.4824 21.541 16.5469C21.566 16.607 21.581 16.6847 21.5635 16.7988L21.7227 16.8232C21.7193 16.8971 21.7082 16.9709 21.6895 17.0439C21.6404 17.0098 21.5972 16.9658 21.585 16.9443C21.578 16.9283 21.5698 16.9022 21.5674 16.8926C21.5637 16.8763 21.5618 16.8634 21.5615 16.8604C21.561 16.8551 21.5606 16.8508 21.5605 16.8486V16.835C21.5605 16.8377 21.56 16.8435 21.5596 16.8525C21.5588 16.8702 21.5582 16.897 21.5566 16.9297C21.5535 16.9947 21.5487 17.0823 21.5439 17.168C21.5392 17.2529 21.5343 17.3349 21.5303 17.3906L21.5156 17.4141L21.5166 17.4395C21.5101 17.4532 21.5034 17.4695 21.4951 17.4863C21.4881 17.5005 21.481 17.5138 21.4746 17.5264C21.3543 17.5875 21.2768 17.6598 21.2529 17.6768C21.2307 17.6925 21.1869 17.726 20.9971 17.7295C20.5565 17.7376 20.1238 17.7232 19.6709 17.7217H19.6699L2.8877 17.7197C2.48504 17.718 2.08224 17.7219 1.67969 17.7314H1.67871C1.37463 17.7398 1.1388 17.7706 0.90625 17.7275C0.703543 17.69 0.520534 17.5957 0.366211 17.3359C0.283664 17.1967 0.240911 16.9519 0.264648 16.6865C0.288704 16.4178 0.374231 16.2028 0.470703 16.1045C0.521903 16.0524 0.590527 15.9963 0.661133 15.9551C0.736689 15.911 0.789197 15.8987 0.811523 15.8984C1.31864 15.893 1.8255 15.8974 2.33789 15.8975L20.5312 15.8955C20.6168 15.8955 20.741 15.8933 20.8701 15.8955ZM1.2168 8.0918C1.32295 8.09543 1.45876 8.10443 1.57812 8.10547H1.5791L2.87207 8.1084H21.0176C21.0247 8.12027 21.0317 8.13285 21.041 8.14453L21.042 8.14551L21.1006 8.24414C21.1826 8.38304 21.2392 8.46606 21.3164 8.5332C21.3499 8.56235 21.3876 8.5877 21.4111 8.60449C21.4378 8.62353 21.4692 8.64689 21.5127 8.68359C21.5127 8.68365 21.5283 8.69811 21.543 8.75488C21.5578 8.81248 21.5653 8.88938 21.5684 8.98535V9.44238C21.5689 9.46534 21.571 9.48816 21.5723 9.51074L21.4844 9.66895C21.4499 9.6868 21.4186 9.70604 21.3916 9.72363C21.3663 9.74007 21.3417 9.75768 21.3203 9.77246C21.298 9.78789 21.2782 9.80085 21.2588 9.81348C21.1835 9.86255 21.1319 9.88457 21.0703 9.88477C20.6162 9.88572 20.1688 9.87535 19.708 9.87305H19.7061L2.95215 9.87109C2.57715 9.86854 2.20213 9.87165 1.82715 9.88086H1.82617C1.72253 9.88362 1.62461 9.88872 1.53418 9.89355C1.44256 9.89845 1.35984 9.90321 1.28125 9.90527C1.12338 9.9094 0.997888 9.90247 0.887695 9.875C0.697457 9.82744 0.502336 9.70483 0.269531 9.31543C0.241136 8.89958 0.260088 8.61866 0.452148 8.35938C0.579786 8.18721 0.727938 8.12363 0.905273 8.10059C0.999554 8.08834 1.10208 8.08788 1.2168 8.0918ZM1.00781 0.25C2.74517 0.278839 4.5099 0.260874 6.24316 0.260742L19.2432 0.259766C19.9122 0.25864 20.5742 0.238129 21.2178 0.271484C21.258 0.278282 21.32 0.307392 21.3955 0.379883C21.4739 0.455254 21.5512 0.563761 21.6133 0.692383C21.7419 0.959209 21.7767 1.24805 21.7051 1.43848C21.5824 1.76425 21.4855 1.90017 21.3945 1.96777C21.3079 2.03216 21.1894 2.06185 20.9355 2.07227L2.84766 2.06738C2.58841 2.06771 2.18798 2.08035 1.8125 2.08594C1.42635 2.09168 1.06579 2.08983 0.851562 2.06543H0.849609C0.718279 2.05151 0.578443 1.97754 0.460938 1.83105L0.459961 1.8291L0.408203 1.75977C0.170626 1.39895 0.207051 0.859777 0.472656 0.478516C0.547196 0.371607 0.621834 0.322032 0.696289 0.293945C0.777952 0.263186 0.875166 0.25229 1.00781 0.25Z" fill="#FFC813" stroke="black" stroke-width="0.5"/>
</svg>
