<svg width="99" height="28" viewBox="0 0 99 28" fill="none" xmlns="http://www.w3.org/2000/svg">
<path d="M0 14C0 6.26801 6.1958 0 13.8387 0H85.1613C92.8042 0 99 6.26801 99 14C99 21.732 92.8042 28 85.1613 28H13.8387C6.1958 28 0 21.732 0 14Z" fill="#6DAC56"/>
<path d="M10.4386 19.3846V9.09461H12.0716L14.3965 13.7986V9.09461H15.642V19.3846H14.3965V16.3046L11.6841 10.8166V19.3846H10.4386Z" fill="black"/>
<path d="M19.3785 19.4966C19.1017 19.4966 18.8249 19.4593 18.5481 19.3846C18.2714 19.3006 18.0315 19.1653 17.8285 18.9786C17.6255 18.7826 17.4779 18.5493 17.3857 18.2786C17.2934 17.9986 17.2473 17.7186 17.2473 17.4386C17.2473 17.1959 17.275 16.9579 17.3303 16.7246C17.3949 16.4819 17.4964 16.2626 17.6348 16.0666C17.7824 15.8706 17.9577 15.7073 18.1606 15.5766C18.3636 15.4366 18.5758 15.3293 18.7972 15.2546C19.0279 15.1706 19.2631 15.1146 19.503 15.0866C19.7429 15.0586 19.9827 15.0446 20.2226 15.0446H21.3159V14.4146C21.3159 14.2279 21.2836 14.0506 21.219 13.8826C21.1636 13.7053 21.0668 13.5559 20.9284 13.4346C20.7992 13.3133 20.647 13.2293 20.4717 13.1826C20.2964 13.1359 20.1211 13.1126 19.9458 13.1126C19.7798 13.1126 19.6183 13.1313 19.4615 13.1686C19.3046 13.1966 19.157 13.2573 19.0186 13.3506C18.8895 13.4346 18.7834 13.5513 18.7004 13.7006C18.6173 13.8406 18.5758 13.9899 18.5758 14.1486V14.1906H17.3303V14.1206C17.3303 13.9059 17.3626 13.6959 17.4272 13.4906C17.4918 13.2853 17.584 13.0986 17.704 12.9306C17.8239 12.7533 17.9715 12.6039 18.1468 12.4826C18.3221 12.3613 18.5066 12.2633 18.7004 12.1886C18.9033 12.1139 19.1063 12.0626 19.3093 12.0346C19.5215 12.0066 19.7336 11.9926 19.9458 11.9926C20.1673 11.9926 20.3887 12.0113 20.6101 12.0486C20.8407 12.0766 21.0575 12.1373 21.2605 12.2306C21.4635 12.3146 21.6526 12.4313 21.8279 12.5806C22.0032 12.7299 22.1462 12.9026 22.2569 13.0986C22.3676 13.2946 22.446 13.5046 22.4922 13.7286C22.5383 13.9526 22.5614 14.1813 22.5614 14.4146V19.3846H21.3159V18.1946C21.2421 18.3906 21.1406 18.5773 21.0114 18.7546C20.8823 18.9226 20.73 19.0673 20.5547 19.1886C20.3887 19.3006 20.2042 19.3799 20.0012 19.4266C19.7982 19.4733 19.5906 19.4966 19.3785 19.4966ZM19.8905 18.3766C20.0935 18.3766 20.2872 18.3439 20.4717 18.2786C20.6655 18.2133 20.8269 18.1106 20.9561 17.9706C21.0945 17.8213 21.1867 17.6486 21.2328 17.4526C21.2882 17.2566 21.3159 17.0606 21.3159 16.8646V16.1646H20.2226C20.0935 16.1646 19.9643 16.174 19.8351 16.1926C19.706 16.202 19.5768 16.2253 19.4476 16.2626C19.3277 16.2906 19.2078 16.3326 19.0878 16.3886C18.9679 16.4446 18.8618 16.5193 18.7695 16.6126C18.6773 16.6966 18.6081 16.8039 18.562 16.9346C18.5158 17.0559 18.4928 17.1819 18.4928 17.3126C18.4928 17.4806 18.5297 17.6393 18.6035 17.7886C18.6865 17.9379 18.7972 18.0593 18.9356 18.1526C19.0832 18.2366 19.2401 18.2973 19.4061 18.3346C19.5722 18.3626 19.7336 18.3766 19.8905 18.3766Z" fill="black"/>
<path d="M27.5986 19.3846H26.1594C26.021 19.0299 25.8826 18.6753 25.7443 18.3206C25.6059 17.9659 25.4721 17.6113 25.3429 17.2566C25.2138 16.9019 25.0892 16.5426 24.9693 16.1786C24.8494 15.8146 24.7386 15.4506 24.6372 15.0866C24.5449 14.7133 24.4619 14.3399 24.3881 13.9666C24.3143 13.5933 24.2774 13.2153 24.2774 12.8326V12.1046H25.5228V12.8326C25.5228 13.1593 25.5459 13.4859 25.592 13.8126C25.6474 14.1299 25.7074 14.4519 25.7719 14.7786C25.8457 15.0959 25.9242 15.4133 26.0072 15.7306C26.0902 16.0386 26.1779 16.3513 26.2701 16.6686C26.3624 16.9766 26.4593 17.2846 26.5607 17.5926C26.6622 17.9006 26.7683 18.2133 26.879 18.5306C26.9897 18.2133 27.0958 17.9006 27.1973 17.5926C27.2988 17.2846 27.3957 16.9766 27.4879 16.6686C27.5802 16.3513 27.6678 16.0386 27.7509 15.7306C27.8339 15.4133 27.9077 15.0959 27.9723 14.7786C28.0461 14.4519 28.1061 14.1299 28.1522 13.8126C28.2075 13.4859 28.2352 13.1593 28.2352 12.8326V12.1046H29.4807V12.8326C29.4807 13.2153 29.4438 13.5933 29.37 13.9666C29.2962 14.3399 29.2085 14.7133 29.1071 15.0866C29.0148 15.4506 28.9087 15.8146 28.7888 16.1786C28.6688 16.5426 28.5443 16.9019 28.4151 17.2566C28.286 17.6113 28.1522 17.9659 28.0138 18.3206C27.8754 18.6753 27.737 19.0299 27.5986 19.3846Z" fill="black"/>
<path d="M34.5457 19.3846H33.9645C33.7892 19.3846 33.6139 19.3706 33.4386 19.3426C33.2725 19.3146 33.1111 19.2633 32.9542 19.1886C32.7974 19.1046 32.6544 19.0019 32.5252 18.8806C32.4053 18.7499 32.3038 18.6053 32.2208 18.4466C32.147 18.2879 32.0962 18.1199 32.0685 17.9426C32.0409 17.7653 32.027 17.5926 32.027 17.4246V13.2246H31.0306V12.1046H33.2725V17.4246C33.2725 17.5273 33.2817 17.6299 33.3002 17.7326C33.3186 17.8353 33.3602 17.9286 33.4247 18.0126C33.4893 18.0966 33.5677 18.1619 33.66 18.2086C33.7615 18.2459 33.863 18.2646 33.9645 18.2646H34.5457V19.3846ZM32.6498 10.9706C32.5206 10.9706 32.3915 10.9519 32.2623 10.9146C32.1331 10.8773 32.0224 10.8119 31.9302 10.7186C31.8471 10.6253 31.7825 10.5179 31.7364 10.3966C31.6995 10.2659 31.6811 10.1353 31.6811 10.0046C31.6811 9.87395 31.6995 9.74795 31.7364 9.62661C31.7825 9.49595 31.8471 9.38395 31.9302 9.29062C32.0224 9.19728 32.1331 9.13195 32.2623 9.09461C32.3915 9.05728 32.5206 9.03861 32.6498 9.03861C32.7789 9.03861 32.9035 9.05728 33.0234 9.09461C33.1526 9.13195 33.2633 9.19728 33.3555 9.29062C33.4478 9.38395 33.5124 9.49595 33.5493 9.62661C33.5862 9.74795 33.6046 9.87395 33.6046 10.0046C33.6046 10.1353 33.5862 10.2659 33.5493 10.3966C33.5124 10.5179 33.4478 10.6253 33.3555 10.7186C33.2633 10.8119 33.1526 10.8773 33.0234 10.9146C32.9035 10.9519 32.7789 10.9706 32.6498 10.9706Z" fill="black"/>
<path d="M38.4206 22.5066C38.1808 22.5066 37.9455 22.4879 37.7148 22.4506C37.4842 22.4226 37.2582 22.3666 37.0368 22.2826C36.8153 22.2079 36.6078 22.1006 36.414 21.9606C36.2295 21.8206 36.068 21.6526 35.9297 21.4566C35.8005 21.2606 35.7082 21.0459 35.6529 20.8126C35.5975 20.5793 35.5698 20.3413 35.5698 20.0986C35.5698 19.9493 35.5791 19.7953 35.5975 19.6366C35.6252 19.4873 35.6667 19.3426 35.7221 19.2026C35.7867 19.0533 35.8651 18.9179 35.9573 18.7966C36.0496 18.6753 36.1557 18.5679 36.2756 18.4746C36.1649 18.3346 36.0773 18.1806 36.0127 18.0126C35.9481 17.8353 35.9158 17.6533 35.9158 17.4666C35.9158 17.2333 35.9619 17.0093 36.0542 16.7946C36.1557 16.5706 36.2895 16.3793 36.4555 16.2206C36.3264 16.1086 36.211 15.9826 36.1096 15.8426C36.0081 15.7026 35.925 15.5533 35.8605 15.3946C35.7959 15.2359 35.7498 15.0726 35.7221 14.9046C35.7036 14.7273 35.6944 14.5546 35.6944 14.3866C35.6944 14.1626 35.7175 13.9386 35.7636 13.7146C35.8097 13.4906 35.8881 13.2853 35.9988 13.0986C36.1096 12.9026 36.2479 12.7299 36.414 12.5806C36.5893 12.4313 36.7784 12.3146 36.9814 12.2306C37.1844 12.1373 37.3966 12.0766 37.618 12.0486C37.8394 12.0113 38.0608 11.9926 38.2822 11.9926C38.4391 11.9926 38.5959 12.0019 38.7528 12.0206C38.9188 12.0393 39.0757 12.0673 39.2233 12.1046H41.3406V13.2246L40.621 13.1966C40.7132 13.3833 40.7732 13.5793 40.8009 13.7846C40.8378 13.9806 40.8562 14.1813 40.8562 14.3866C40.8562 14.6106 40.8332 14.8346 40.787 15.0586C40.7501 15.2733 40.6717 15.4786 40.5518 15.6746C40.4411 15.8706 40.2981 16.0433 40.1228 16.1926C39.9567 16.3326 39.7722 16.4493 39.5692 16.5426C39.3663 16.6266 39.1541 16.6873 38.9327 16.7246C38.7205 16.7619 38.5037 16.7806 38.2822 16.7806C38.1254 16.7806 37.9639 16.7713 37.7979 16.7526C37.641 16.7339 37.4888 16.7059 37.3412 16.6686C37.2489 16.7339 37.1751 16.8179 37.1198 16.9206C37.0737 17.0233 37.0506 17.1306 37.0506 17.2426C37.0506 17.3453 37.0737 17.4433 37.1198 17.5366C37.1659 17.6299 37.2259 17.7093 37.2997 17.7746C37.3827 17.8306 37.475 17.8726 37.5765 17.9006C37.6779 17.9286 37.7794 17.9473 37.8809 17.9566H38.7389C38.9511 17.9566 39.1633 17.9706 39.3755 17.9986C39.5877 18.0173 39.7907 18.0686 39.9844 18.1526C40.1781 18.2273 40.358 18.3299 40.5241 18.4606C40.6994 18.5819 40.8424 18.7359 40.9531 18.9226C41.073 19.0999 41.1561 19.2913 41.2022 19.4966C41.2483 19.7113 41.2714 19.9213 41.2714 20.1266C41.2714 20.3693 41.2391 20.6026 41.1745 20.8266C41.1192 21.0599 41.0223 21.2699 40.8839 21.4566C40.7548 21.6526 40.5933 21.8206 40.3996 21.9606C40.215 22.1006 40.0121 22.2126 39.7907 22.2966C39.5692 22.3806 39.3432 22.4366 39.1126 22.4646C38.8819 22.4926 38.6513 22.5066 38.4206 22.5066ZM38.2822 15.6606C38.4575 15.6606 38.6282 15.6373 38.7943 15.5906C38.9696 15.5439 39.1218 15.4599 39.2509 15.3386C39.3801 15.2173 39.4724 15.0726 39.5277 14.9046C39.5923 14.7366 39.6246 14.5639 39.6246 14.3866C39.6246 14.2279 39.5969 14.0693 39.5416 13.9106C39.4954 13.7519 39.417 13.6166 39.3063 13.5046C39.2048 13.3833 39.0757 13.2946 38.9188 13.2386C38.7712 13.1733 38.619 13.1313 38.4621 13.1126H38.2822C38.1069 13.1126 37.9317 13.1359 37.7564 13.1826C37.5903 13.2293 37.4381 13.3133 37.2997 13.4346C37.1705 13.5466 37.0783 13.6913 37.0229 13.8686C36.9676 14.0366 36.9399 14.2093 36.9399 14.3866C36.9399 14.5639 36.9676 14.7366 37.0229 14.9046C37.0783 15.0726 37.1705 15.2173 37.2997 15.3386C37.4381 15.4599 37.5903 15.5439 37.7564 15.5906C37.9317 15.6373 38.1069 15.6606 38.2822 15.6606ZM38.4206 21.3866C38.6144 21.3866 38.8035 21.368 38.988 21.3306C39.1818 21.2933 39.357 21.2186 39.5139 21.1066C39.6707 21.0039 39.7953 20.8639 39.8875 20.6866C39.9798 20.5093 40.0259 20.3226 40.0259 20.1266C40.0259 19.9679 39.9936 19.8139 39.929 19.6646C39.8645 19.5153 39.7676 19.3986 39.6384 19.3146C39.5093 19.2213 39.3663 19.1606 39.2094 19.1326C39.0526 19.0953 38.8958 19.0766 38.7389 19.0766H37.9224C37.784 19.0859 37.6457 19.1139 37.5073 19.1606C37.3689 19.1979 37.2443 19.2633 37.1336 19.3566C37.0229 19.4406 36.9399 19.5479 36.8845 19.6786C36.8384 19.8186 36.8153 19.9633 36.8153 20.1126C36.8153 20.3086 36.8568 20.4953 36.9399 20.6726C37.0229 20.8499 37.1428 20.9946 37.2997 21.1066C37.4658 21.2186 37.6457 21.2933 37.8394 21.3306C38.0331 21.368 38.2269 21.3866 38.4206 21.3866Z" fill="black"/>
<path d="M44.7449 19.4966C44.4681 19.4966 44.1914 19.4593 43.9146 19.3846C43.6378 19.3006 43.3979 19.1653 43.195 18.9786C42.992 18.7826 42.8444 18.5493 42.7521 18.2786C42.6599 17.9986 42.6138 17.7186 42.6138 17.4386C42.6138 17.1959 42.6414 16.9579 42.6968 16.7246C42.7614 16.4819 42.8629 16.2626 43.0012 16.0666C43.1488 15.8706 43.3241 15.7073 43.5271 15.5766C43.7301 15.4366 43.9423 15.3293 44.1637 15.2546C44.3943 15.1706 44.6296 15.1146 44.8695 15.0866C45.1093 15.0586 45.3492 15.0446 45.5891 15.0446H46.6823V14.4146C46.6823 14.2279 46.65 14.0506 46.5855 13.8826C46.5301 13.7053 46.4332 13.5559 46.2948 13.4346C46.1657 13.3133 46.0135 13.2293 45.8382 13.1826C45.6629 13.1359 45.4876 13.1126 45.3123 13.1126C45.1462 13.1126 44.9848 13.1313 44.8279 13.1686C44.6711 13.1966 44.5235 13.2573 44.3851 13.3506C44.2559 13.4346 44.1499 13.5513 44.0668 13.7006C43.9838 13.8406 43.9423 13.9899 43.9423 14.1486V14.1906H42.6968V14.1206C42.6968 13.9059 42.7291 13.6959 42.7937 13.4906C42.8582 13.2853 42.9505 13.0986 43.0704 12.9306C43.1904 12.7533 43.338 12.6039 43.5133 12.4826C43.6886 12.3613 43.8731 12.2633 44.0668 12.1886C44.2698 12.1139 44.4728 12.0626 44.6757 12.0346C44.8879 12.0066 45.1001 11.9926 45.3123 11.9926C45.5337 11.9926 45.7551 12.0113 45.9766 12.0486C46.2072 12.0766 46.424 12.1373 46.627 12.2306C46.8299 12.3146 47.0191 12.4313 47.1944 12.5806C47.3697 12.7299 47.5127 12.9026 47.6234 13.0986C47.7341 13.2946 47.8125 13.5046 47.8586 13.7286C47.9048 13.9526 47.9278 14.1813 47.9278 14.4146V19.3846H46.6823V18.1946C46.6085 18.3906 46.507 18.5773 46.3779 18.7546C46.2487 18.9226 46.0965 19.0673 45.9212 19.1886C45.7551 19.3006 45.5706 19.3799 45.3677 19.4266C45.1647 19.4733 44.9571 19.4966 44.7449 19.4966ZM45.2569 18.3766C45.4599 18.3766 45.6537 18.3439 45.8382 18.2786C46.0319 18.2133 46.1934 18.1106 46.3225 17.9706C46.4609 17.8213 46.5532 17.6486 46.5993 17.4526C46.6547 17.2566 46.6823 17.0606 46.6823 16.8646V16.1646H45.5891C45.4599 16.1646 45.3308 16.174 45.2016 16.1926C45.0724 16.202 44.9433 16.2253 44.8141 16.2626C44.6942 16.2906 44.5742 16.3326 44.4543 16.3886C44.3344 16.4446 44.2283 16.5193 44.136 16.6126C44.0438 16.6966 43.9746 16.8039 43.9284 16.9346C43.8823 17.0559 43.8592 17.1819 43.8592 17.3126C43.8592 17.4806 43.8961 17.6393 43.9699 17.7886C44.053 17.9379 44.1637 18.0593 44.3021 18.1526C44.4497 18.2366 44.6065 18.2973 44.7726 18.3346C44.9387 18.3626 45.1001 18.3766 45.2569 18.3766Z" fill="black"/>
<path d="M53.1173 19.4966C52.9051 19.4966 52.6929 19.4686 52.4808 19.4126C52.2778 19.3566 52.0887 19.2679 51.9134 19.1466C51.7381 19.0159 51.5905 18.8619 51.4705 18.6846C51.3506 18.4979 51.2537 18.3066 51.1799 18.1106C51.1153 17.9053 51.0692 17.6953 51.0415 17.4806C51.0139 17.2566 51 17.0373 51 16.8226V13.2246H49.7545V12.1046H51V9.09461H52.2455V12.1046H54.5981V13.2246H52.2455V16.8226C52.2455 16.9346 52.2501 17.0466 52.2593 17.1586C52.2686 17.2706 52.2824 17.3826 52.3008 17.4946C52.3285 17.5973 52.3608 17.6999 52.3977 17.8026C52.4346 17.9053 52.4854 18.0033 52.5499 18.0966C52.6238 18.1806 52.7068 18.2506 52.799 18.3066C52.9005 18.3533 53.0066 18.3766 53.1173 18.3766C53.228 18.3766 53.3295 18.3533 53.4218 18.3066C53.5233 18.26 53.6063 18.1946 53.6709 18.1106C53.7355 18.0266 53.7862 17.9379 53.8231 17.8446C53.8692 17.7419 53.9015 17.6393 53.92 17.5366C53.9477 17.4246 53.9661 17.3173 53.9753 17.2146C53.9938 17.1026 54.003 16.9953 54.003 16.8926V16.8086H55.2485V16.9486C55.2485 17.1539 55.23 17.3639 55.1931 17.5786C55.1562 17.7839 55.1009 17.9846 55.0271 18.1806C54.9533 18.3766 54.8518 18.5586 54.7226 18.7266C54.6027 18.8946 54.4597 19.0393 54.2936 19.1606C54.1276 19.2819 53.943 19.3659 53.7401 19.4126C53.5371 19.4686 53.3295 19.4966 53.1173 19.4966Z" fill="black"/>
<path d="M59.1648 19.4966C58.9158 19.4966 58.6667 19.4733 58.4176 19.4266C58.1685 19.3799 57.9332 19.2959 57.7118 19.1746C57.4996 19.0439 57.3058 18.8853 57.1306 18.6986C56.9645 18.5026 56.8261 18.2926 56.7154 18.0686C56.6139 17.8353 56.5447 17.5926 56.5078 17.3406C56.4709 17.0886 56.4525 16.8366 56.4525 16.5846V14.9046C56.4525 14.6526 56.4709 14.4006 56.5078 14.1486C56.554 13.8966 56.6278 13.6586 56.7292 13.4346C56.8307 13.2013 56.9645 12.9913 57.1306 12.8046C57.3058 12.6086 57.5042 12.4499 57.7256 12.3286C57.947 12.1979 58.1777 12.1093 58.4176 12.0626C58.6667 12.0159 58.9204 11.9926 59.1787 11.9926C59.4001 11.9926 59.6215 12.0066 59.8429 12.0346C60.0644 12.0626 60.2766 12.1186 60.4795 12.2026C60.6917 12.2773 60.8855 12.3846 61.0608 12.5246C61.2453 12.6553 61.3975 12.8139 61.5174 13.0006C61.6466 13.1873 61.7388 13.3926 61.7942 13.6166C61.8496 13.8313 61.8772 14.0506 61.8772 14.2746C61.8772 14.4986 61.8496 14.7226 61.7942 14.9466C61.7388 15.1706 61.642 15.3713 61.5036 15.5486C61.3744 15.7259 61.213 15.8799 61.0192 16.0106C60.8347 16.1319 60.6364 16.2299 60.4242 16.3046C60.212 16.3699 59.9952 16.4166 59.7738 16.4446C59.5616 16.4726 59.3401 16.4866 59.1095 16.4866H57.6979V16.5846C57.6979 16.8086 57.721 17.0279 57.7671 17.2426C57.8133 17.4573 57.9009 17.6579 58.0301 17.8446C58.1592 18.0219 58.3253 18.1573 58.5283 18.2506C58.7312 18.3346 58.9434 18.3766 59.1648 18.3766C59.3309 18.3766 59.497 18.3626 59.663 18.3346C59.8291 18.2973 59.9813 18.2366 60.1197 18.1526C60.2673 18.0593 60.3827 17.9379 60.4657 17.7886C60.5579 17.6393 60.6041 17.4759 60.6041 17.2986H61.8496C61.8496 17.5226 61.8127 17.7419 61.7388 17.9566C61.6743 18.1619 61.5774 18.3533 61.4482 18.5306C61.3283 18.7079 61.1807 18.8619 61.0054 18.9926C60.8301 19.1233 60.641 19.226 60.438 19.3006C60.235 19.3753 60.0229 19.4266 59.8014 19.4546C59.5892 19.4826 59.377 19.4966 59.1648 19.4966ZM57.6979 15.3666H59.1095C59.2294 15.3666 59.3494 15.3619 59.4693 15.3526C59.5892 15.3433 59.7046 15.3199 59.8153 15.2826C59.926 15.2453 60.0321 15.1986 60.1336 15.1426C60.235 15.0866 60.3227 15.0166 60.3965 14.9326C60.4795 14.8393 60.5395 14.7366 60.5764 14.6246C60.6133 14.5126 60.6318 14.3959 60.6318 14.2746C60.6318 14.0973 60.5902 13.9293 60.5072 13.7706C60.4334 13.6026 60.3227 13.4719 60.1751 13.3786C60.0275 13.2759 59.866 13.2059 59.6907 13.1686C59.5247 13.1313 59.354 13.1126 59.1787 13.1126C58.9573 13.1126 58.7405 13.1593 58.5283 13.2526C58.3253 13.3366 58.1592 13.4673 58.0301 13.6446C57.9009 13.8219 57.8133 14.0226 57.7671 14.2466C57.721 14.4613 57.6979 14.6806 57.6979 14.9046V15.3666Z" fill="black"/>
<path d="M80.371 21C80.2999 21 80.2295 20.9856 80.164 20.9577C80.0985 20.9298 80.0392 20.8888 79.9896 20.8373C79.94 20.7858 79.9011 20.7248 79.8751 20.6578C79.8492 20.5908 79.8368 20.5193 79.8387 20.4474V14.2736C79.8387 14.2022 79.8107 14.1337 79.7608 14.0832C79.7109 14.0327 79.6432 14.0044 79.5726 14.0044H73.4652C73.3533 14.0057 73.2437 13.972 73.1514 13.9078C73.0592 13.8437 72.9888 13.7522 72.95 13.646C72.9057 13.5193 72.9099 13.3805 72.9617 13.2567C73.0134 13.133 73.109 13.0333 73.2297 12.9773L86.0039 7.04913C86.1026 7.00339 86.2128 6.98926 86.3196 7.00866C86.4265 7.02805 86.5249 7.08004 86.6017 7.15764C86.6786 7.23524 86.7301 7.33475 86.7494 7.44282C86.7687 7.55089 86.7549 7.66235 86.7098 7.76226L80.855 20.6853C80.8126 20.7792 80.7444 20.8587 80.6586 20.9145C80.5728 20.9703 80.473 21 80.371 21Z" fill="black"/>
</svg>
