<svg width="29" height="29" viewBox="0 0 29 29" fill="none" xmlns="http://www.w3.org/2000/svg">
<path d="M11.874 0.251953C13.6246 0.275189 15.3421 0.681889 16.9092 1.43359L16.9277 1.43262L16.9346 1.44629C17.4075 1.67452 17.8675 1.93324 18.3096 2.22363C20.9819 3.97976 22.6881 6.80752 23.3066 9.89258C23.3748 10.2327 23.438 10.5142 23.4502 10.8945L23.4814 11.3076C23.5944 13.3799 23.0107 15.5745 22.042 17.3652C21.7858 17.8389 21.4709 18.2718 21.1943 18.6953C21.1562 18.7537 21.1024 18.8397 21.0654 18.9238C21.047 18.9658 21.0365 18.9991 21.0322 19.0225C21.032 19.0238 21.0314 19.0252 21.0312 19.0264C21.0394 19.0386 21.0565 19.0646 21.0898 19.1055C21.1378 19.1642 21.2036 19.2379 21.2842 19.3232C21.4452 19.4939 21.6556 19.7009 21.874 19.9111C22.092 20.121 22.3161 20.3324 22.5059 20.5098C22.694 20.6856 22.8516 20.831 22.9307 20.9072C23.2636 21.228 23.5809 21.5636 23.8936 21.8945C24.2074 22.2267 24.5168 22.5541 24.8379 22.8682C25.4934 23.5093 26.1482 24.1494 26.7939 24.8066C27.0611 25.0786 27.3882 25.3783 27.6504 25.6992C27.7802 25.8581 27.9191 26.0604 27.9678 26.3145C28.0413 26.699 27.9347 27.0752 27.7236 27.377C27.5243 27.6618 27.1859 27.9601 26.7822 28.0273C26.4848 28.0768 26.2177 27.9963 25.9873 27.8525C25.5945 27.6073 25.2518 27.2265 24.9658 26.9463C24.2981 26.2922 23.6431 25.5909 22.9932 24.9395C22.667 24.6125 22.3285 24.2974 21.9873 23.9746C21.6475 23.6532 21.3058 23.3257 20.9795 22.9814C20.7181 22.7056 20.4175 22.3662 20.0771 22.0117C19.7438 21.6646 19.4172 21.3512 19.1572 21.1738C19.0947 21.1312 19.0382 21.0952 18.9854 21.0732C18.9309 21.0506 18.9162 21.0576 18.9219 21.0557C18.7965 21.0989 18.6591 21.1956 18.4941 21.3281C18.3432 21.4494 18.1599 21.6088 17.9834 21.7188C17.5456 21.9913 16.9072 22.3157 16.2568 22.5938C15.6089 22.8707 14.9298 23.1103 14.4141 23.2061C13.7917 23.3216 13.1024 23.4638 12.4424 23.498C9.86349 23.6318 7.22652 22.7252 5.13672 21.2822H5.13574C3.64251 20.251 2.25661 18.6351 1.46289 16.9971C1.00752 16.0573 0.631226 14.7968 0.447266 13.7871C0.251167 12.7108 0.153195 11.1705 0.384766 10.0557C0.409132 9.93845 0.458453 9.83526 0.493164 9.76172C0.531856 9.67974 0.555413 9.62748 0.567383 9.5752C0.588778 9.48133 0.602047 9.38485 0.618164 9.27441C0.633745 9.16766 0.651881 9.04776 0.682617 8.92773C1.03711 7.54313 1.6753 6.21401 2.4873 5.04883C2.71374 4.7239 2.99091 4.43108 3.2334 4.1582C4.81996 2.37292 6.71461 1.23978 9.01465 0.62207C9.55008 0.478262 10.1458 0.398003 10.6621 0.304688L10.6953 0.298828L10.6963 0.299805C10.8611 0.270603 11.0769 0.257609 11.2773 0.25293C11.4988 0.247767 11.7217 0.250453 11.873 0.251953H11.874ZM20.6289 11.0947C20.2034 6.24313 15.9188 2.65953 11.0684 3.09863C6.23747 3.53624 2.67107 7.80066 3.09473 12.6328C3.51862 17.4647 7.77228 21.0425 12.6055 20.6328C17.4585 20.2213 21.0543 15.9466 20.6289 11.0947Z" fill="#F18800" stroke="#292F36" stroke-width="0.5"/>
</svg>
